<svg width="69" height="65" viewBox="0 0 69 65" fill="none" xmlns="http://www.w3.org/2000/svg">
<rect x="5" width="4" height="52" fill="white"/>
<rect x="11" width="6" height="52" fill="white"/>
<rect x="18" width="7" height="52" fill="white"/>
<rect x="27" width="12" height="52" fill="white"/>
<rect x="41" width="13" height="52" fill="white"/>
<rect x="55" width="14" height="52" fill="white"/>
<rect x="2" width="2" height="52" fill="white"/>
<rect width="1" height="52" fill="white"/>
<path d="M46.939 55.728L46.228 56.025C46.471 56.367 46.75 56.907 46.93 57.267L47.65 56.961C47.488 56.628 47.164 56.061 46.939 55.728ZM48.001 55.323L47.29 55.611C47.542 55.953 47.83 56.475 48.019 56.853L48.73 56.547C48.568 56.232 48.244 55.656 48.001 55.323ZM43.951 56.16L42.565 55.89C42.547 56.169 42.475 56.511 42.376 56.808C42.259 57.159 42.097 57.627 41.854 58.041C41.512 58.608 40.927 59.418 40.288 59.895L41.422 60.579C42.016 60.057 42.628 59.184 42.988 58.473C43.222 58.014 43.492 57.348 43.654 56.898C43.726 56.709 43.852 56.394 43.951 56.16ZM42.529 57.555L42.43 58.689C43.276 58.689 46.831 58.689 47.29 58.689C47.497 58.689 47.884 58.689 48.226 58.716V57.492C47.929 57.537 47.515 57.555 47.29 57.555C46.831 57.555 43.312 57.555 42.529 57.555ZM46.048 58.203H44.797C44.761 60.372 43.96 61.614 42.934 62.397C42.727 62.577 42.412 62.757 42.088 62.892L43.303 63.711C45.04 62.613 45.985 60.858 46.048 58.203ZM49.819 58.833V60.255C50.161 60.228 50.764 60.201 51.268 60.201C52.33 60.201 55.291 60.201 56.11 60.201C56.488 60.201 56.947 60.246 57.163 60.255V58.833C56.92 58.851 56.524 58.896 56.101 58.896C55.3 58.896 52.33 58.896 51.268 58.896C50.8 58.896 50.152 58.86 49.819 58.833ZM62.7135 56.214L61.2825 55.926C61.2465 56.223 61.2015 56.511 61.0755 56.961C60.7785 58.005 59.8425 60.957 59.3565 62.109L60.6795 62.064C61.0665 61.128 62.0025 58.23 62.3355 57.222C62.4705 56.817 62.5965 56.484 62.7135 56.214ZM64.3245 59.121L63.2085 59.589C63.8475 60.453 64.6845 62.316 65.0895 63.405L66.3045 62.865C65.8905 61.866 64.9725 60.093 64.3245 59.121ZM59.2665 61.704C58.9785 61.713 58.5825 61.722 58.2765 61.713L58.4925 63.036C58.7715 63 59.1135 62.955 59.3385 62.928C60.5535 62.802 63.6495 62.478 64.9815 62.307L64.7205 61.155C63.4605 61.326 60.5175 61.659 59.2665 61.704Z" fill="white"/>
</svg>
