<svg width="359" height="137" viewBox="0 0 359 137" fill="none" xmlns="http://www.w3.org/2000/svg">
<rect x="0.5" y="0.5" width="106" height="23" stroke="white"/>
<rect x="0.5" y="40.5" width="106" height="23" stroke="white"/>
<rect x="0.5" y="74.5" width="106" height="23" stroke="white"/>
<rect x="0.5" y="113.5" width="106" height="23" stroke="white"/>
<rect x="126.5" y="93.5" width="106" height="23" stroke="white"/>
<rect x="126.5" y="19.5" width="106" height="23" stroke="white"/>
<rect x="252.5" y="43.5" width="106" height="42" fill="white" stroke="white"/>
<line x1="106" y1="12.5" x2="115" y2="12.5" stroke="white"/>
<line x1="106" y1="51.5" x2="115" y2="51.5" stroke="white"/>
<line x1="116" y1="31.5" x2="126" y2="31.5" stroke="white"/>
<line x1="116" y1="106.5" x2="126" y2="106.5" stroke="white"/>
<line x1="242" y1="65.5" x2="252" y2="65.5" stroke="white"/>
<line x1="115.5" y1="12" x2="115.5" y2="52" stroke="white"/>
<line x1="106" y1="85.5" x2="115" y2="85.5" stroke="white"/>
<line x1="106" y1="124.5" x2="115" y2="124.5" stroke="white"/>
<line x1="115.5" y1="85" x2="115.5" y2="125" stroke="white"/>
<line x1="233" y1="30.5" x2="242" y2="30.5" stroke="white"/>
<line x1="233" y1="106.5" x2="242" y2="106.5" stroke="white"/>
<line x1="242.5" y1="30" x2="242.5" y2="107" stroke="white"/>
<path d="M273.238 67.2556C275.646 67.2556 277.06 65.7296 277.06 63.5036C277.06 61.2496 275.646 59.8216 273.238 59.8216H266V69.9996H268.17V62.0056H273.238C274.302 62.0056 274.932 62.6076 274.932 63.5736C274.932 64.5116 274.302 65.1416 273.238 65.1416H269.444V67.2556H273.238Z" fill="black"/>
<path d="M286.946 69.9996V67.8156H280.366V59.8216H278.182V69.9996H286.946Z" fill="black"/>
<path d="M301.058 69.9996L295.276 60.3816C295.024 59.9616 294.702 59.6816 294.226 59.6816C293.75 59.6816 293.428 59.9616 293.176 60.3816L287.394 69.9996H289.872L294.142 62.7616L296.004 65.8976H293.708L292.714 67.5916H297.012L298.44 69.9996H301.058Z" fill="black"/>
<path d="M305.821 69.9996V66.3036L311.141 59.8216H308.369L304.813 64.3156L301.257 59.8216H298.331L303.637 66.3036V69.9996H305.821Z" fill="black"/>
<path d="M320.909 65.6876V63.9656H315.505V65.6876H320.909ZM321.315 69.9996V67.8156H314.231V62.0056H321.301V59.8216H312.061V69.9996H321.315Z" fill="black"/>
<path d="M334.877 69.9996L331.825 66.9336C333.099 66.4296 333.883 65.2676 333.883 63.6016C333.883 61.2916 332.469 59.8216 330.089 59.8216H322.697V69.9996H324.867V62.0056H330.089C331.125 62.0056 331.741 62.5796 331.741 63.6576C331.741 64.7356 331.153 65.3656 330.089 65.3656H326.141V67.2276H329.305L331.783 69.9996H334.877Z" fill="black"/>
<path d="M343.65 69.9996V63.3496C343.65 61.1376 342.432 59.8216 340.262 59.8216H339.296V62.0056H340.262C341.06 62.0056 341.48 62.4676 341.48 63.3496V69.9996H343.65Z" fill="black"/>
</svg>
