<svg width="131" height="184" viewBox="0 0 131 184" fill="none" xmlns="http://www.w3.org/2000/svg">
<rect x="0.5" y="110.5" width="130" height="46" stroke="white"/>
<path d="M45.08 123.992V127.64H32.96V130.376H45.08V133.544H32.96V140H28.088V123.992H45.08ZM47.5293 140V135.536H52.3053V140H47.5293ZM60.1541 140H54.7301L63.6581 123.992H70.2341L78.9701 140H73.5941L72.0821 137.096H61.7381L60.1541 140ZM63.4421 133.784H70.3061L66.8741 127.448L63.4421 133.784ZM81.3496 140V135.536H86.1256V140H81.3496ZM109.67 138.752C108.918 139.264 108.102 139.616 107.222 139.808C106.342 140 105.366 140.096 104.294 140.096L100.67 140.168H96.8544C95.3824 140.168 94.1584 140.08 93.1824 139.904C92.2064 139.712 91.4304 139.296 90.8544 138.656C90.2944 138.016 89.9344 137.288 89.7744 136.472C89.6304 135.64 89.5584 134.712 89.5584 133.688L89.5104 131.696C89.5104 130.992 89.5264 130.328 89.5584 129.704C89.5904 129.064 89.6784 128.288 89.8224 127.376C89.9664 126.464 90.5744 125.656 91.6464 124.952C92.7184 124.248 94.5024 123.896 96.9984 123.896L100.67 123.848C101.966 123.848 103.046 123.864 103.91 123.896C104.79 123.912 105.838 123.984 107.054 124.112C108.286 124.224 109.302 124.672 110.102 125.456C110.902 126.24 111.302 127.416 111.302 128.984C111.35 129.4 111.382 129.936 111.398 130.592C111.414 131.232 111.422 131.592 111.422 131.672C111.422 132.632 111.406 133.368 111.374 133.88C111.358 134.392 111.302 135 111.206 135.704L113.27 136.832L111.566 140.048L109.67 138.752ZM106.502 131.384C106.502 130.968 106.494 130.608 106.478 130.304C106.462 130 106.398 129.616 106.286 129.152C106.19 128.672 105.894 128.328 105.398 128.12C104.902 127.912 104.294 127.808 103.574 127.808L100.694 127.76C99.7824 127.76 99.0384 127.768 98.4624 127.784C97.8864 127.8 97.1984 127.856 96.3984 127.952C95.5984 128.032 95.0704 128.328 94.8144 128.84C94.5584 129.352 94.4304 130.104 94.4304 131.096V132.392C94.4304 133.976 94.6224 135.016 95.0064 135.512C95.4064 136.008 96.4464 136.256 98.1264 136.256L103.502 136.16C103.966 136.16 104.454 136.096 104.966 135.968L99.7824 133.112L101.798 129.92L106.502 132.944V131.384Z" fill="white"/>
<g clip-path="url(#clip0_122_122)">
<path d="M67.5342 174.281L67.5082 156.76" stroke="white" stroke-width="2" stroke-linecap="round" stroke-linejoin="round"/>
<path d="M74.8237 166.97L67.5342 174.281L60.223 166.992" stroke="white" stroke-width="2" stroke-linecap="round" stroke-linejoin="round"/>
</g>
<line x1="66.5" y1="2.18557e-08" x2="66.5" y2="110" stroke="white"/>
<circle cx="66.5" cy="109.5" r="5.5" fill="white"/>
<defs>
<clipPath id="clip0_122_122">
<rect width="24.7782" height="24.7782" fill="white" transform="matrix(0.706056 -0.708156 -0.708156 -0.706056 67.5469 183.042)"/>
</clipPath>
</defs>
</svg>
