<svg width="55" height="55" viewBox="0 0 55 55" fill="none" xmlns="http://www.w3.org/2000/svg">
<path fill-rule="evenodd" clip-rule="evenodd" d="M27.5 0C12.3125 0 0 12.3125 0 27.5C0 42.6875 12.3125 55 27.5 55C42.6875 55 55 42.6875 55 27.5C55 12.3125 42.6875 0 27.5 0ZM39.42 22.85C39.6395 22.5991 39.8066 22.3068 39.9115 21.9904C40.0163 21.674 40.0569 21.3398 40.0307 21.0075C40.0045 20.6751 39.9121 20.3514 39.7589 20.0553C39.6058 19.7592 39.395 19.4968 39.1389 19.2834C38.8828 19.0699 38.5866 18.9099 38.2677 18.8127C37.9489 18.7154 37.6138 18.6829 37.2822 18.7171C36.9506 18.7512 36.6292 18.8514 36.3369 19.0116C36.0445 19.1718 35.7872 19.3889 35.58 19.65L24.83 32.5475L19.2675 26.9825C18.796 26.5271 18.1645 26.2751 17.509 26.2808C16.8535 26.2865 16.2265 26.5494 15.763 27.013C15.2994 27.4765 15.0365 28.1035 15.0308 28.759C15.0251 29.4145 15.2771 30.046 15.7325 30.5175L23.2325 38.0175C23.4781 38.263 23.7722 38.4546 24.096 38.5802C24.4198 38.7057 24.7662 38.7624 25.1132 38.7466C25.4601 38.7309 25.7999 38.643 26.111 38.4886C26.4221 38.3342 26.6976 38.1168 26.92 37.85L39.42 22.85Z" fill="#81FF33"/>
</svg>
