<svg width="566" height="240" viewBox="0 0 566 240" fill="none" xmlns="http://www.w3.org/2000/svg">
<line x1="172.887" y1="2.17806e-08" x2="172.887" y2="239.175" stroke="#191919" stroke-opacity="0.1"/>
<line x1="209.764" y1="2.17806e-08" x2="209.764" y2="239.175" stroke="#191919" stroke-opacity="0.1"/>
<line x1="246.642" y1="2.17806e-08" x2="246.642" y2="239.175" stroke="#191919" stroke-opacity="0.1"/>
<line x1="283.519" y1="2.17806e-08" x2="283.519" y2="239.175" stroke="#191919" stroke-opacity="0.1"/>
<line x1="320.296" y1="2.17806e-08" x2="320.296" y2="239.175" stroke="#191919" stroke-opacity="0.1"/>
<line x1="467.905" y1="2.17806e-08" x2="467.905" y2="239.175" stroke="#191919" stroke-opacity="0.1"/>
<line x1="25.3779" y1="2.17806e-08" x2="25.3779" y2="239.175" stroke="#191919" stroke-opacity="0.1"/>
<line x1="62.2549" y1="2.17806e-08" x2="62.2549" y2="239.175" stroke="#191919" stroke-opacity="0.1"/>
<line x1="99.1318" y1="2.17806e-08" x2="99.1318" y2="239.175" stroke="#191919" stroke-opacity="0.1"/>
<line x1="136.01" y1="2.17806e-08" x2="136.01" y2="239.175" stroke="#191919" stroke-opacity="0.1"/>
<line x1="565.421" y1="139.021" x2="0.616333" y2="139.021" stroke="#191919" stroke-opacity="0.1"/>
<line x1="565.421" y1="176.893" x2="0.616333" y2="176.893" stroke="#191919" stroke-opacity="0.1"/>
<line x1="565.421" y1="214.762" x2="0.616333" y2="214.762" stroke="#191919" stroke-opacity="0.1"/>
<line x1="565.421" y1="25.4141" x2="0.616333" y2="25.414" stroke="#191919" stroke-opacity="0.1"/>
<line x1="565.421" y1="63.2832" x2="0.616333" y2="63.2832" stroke="#191919" stroke-opacity="0.1"/>
<line x1="565.421" y1="101.152" x2="0.616333" y2="101.152" stroke="#191919" stroke-opacity="0.1"/>
<line x1="431.0.1" y1="2.17806e-08" x2="431.0.1" y2="239.175" stroke="#191919" stroke-opacity="0.1"/>
<line x1="357.273" y1="2.17806e-08" x2="357.273" y2="239.175" stroke="#191919" stroke-opacity="0.1"/>
<line x1="504.782" y1="2.17806e-08" x2="504.782" y2="239.175" stroke="#191919" stroke-opacity="0.1"/>
<line x1="541.659" y1="2.17806e-08" x2="541.659" y2="239.175" stroke="#191919" stroke-opacity="0.1"/>
<line x1="394.15" y1="2.17806e-08" x2="394.15" y2="239.175" stroke="#191919" stroke-opacity="0.1"/>
</svg>
