<svg width="428" height="320" viewBox="0 0 428 320" fill="none" xmlns="http://www.w3.org/2000/svg">
<rect width="428" height="320" fill="white"/>
<path d="M26.6846 56.9717V58H23.4634V56.9717H26.6846ZM23.8896 51.6016V58H22.5713V51.6016H23.8896ZM30.8242 51.6016H32.1382V55.8291C32.1382 56.3213 32.0327 56.7358 31.8218 57.0728C31.6138 57.4097 31.3252 57.6631 30.9561 57.833C30.5898 58.0029 30.168 58.0879 29.6904 58.0879C29.2129 58.0879 28.7881 58.0029 28.416 57.833C28.0469 57.6631 27.7568 57.4097 27.5459 57.0728C27.3379 56.7358 27.2339 56.3213 27.2339 55.8291V51.6016H28.5522V55.8291C28.5522 56.1162 28.5977 56.3506 28.6885 56.5322C28.7793 56.7139 28.9097 56.8472 29.0796 56.9321C29.2524 57.0171 29.4561 57.0596 29.6904 57.0596C29.9307 57.0596 30.1343 57.0171 30.3013 56.9321C30.4712 56.8472 30.6001 56.7139 30.688 56.5322C30.7788 56.3506 30.8242 56.1162 30.8242 55.8291V51.6016ZM38.4312 51.6016V58H37.1128L34.542 53.7109V58H33.2236V51.6016H34.542L37.1172 55.895V51.6016H38.4312ZM41.5425 58H40.1494L40.1582 56.9717H41.5425C41.8882 56.9717 42.1797 56.894 42.417 56.7388C42.6543 56.5806 42.833 56.3506 42.9531 56.0488C43.0762 55.7471 43.1377 55.3823 43.1377 54.9546V54.6426C43.1377 54.3145 43.1025 54.0259 43.0322 53.7769C42.9648 53.5278 42.8638 53.3184 42.729 53.1484C42.5942 52.9785 42.4287 52.8511 42.2324 52.7661C42.0361 52.6782 41.8105 52.6343 41.5557 52.6343H40.123V51.6016H41.5557C41.9834 51.6016 42.3745 51.6748 42.729 51.8213C43.0864 51.9648 43.3955 52.1714 43.6562 52.4409C43.917 52.7104 44.1177 53.0327 44.2583 53.4077C44.4019 53.7798 44.4736 54.1943 44.4736 54.6514V54.9546C44.4736 55.4087 44.4019 55.8232 44.2583 56.1982C44.1177 56.5732 43.917 56.8955 43.6562 57.165C43.3984 57.4316 43.0894 57.6382 42.729 57.7847C42.3716 57.9282 41.9761 58 41.5425 58ZM40.8965 51.6016V58H39.5781V51.6016H40.8965ZM46.8335 51.6016V58H45.5195V51.6016H46.8335Z" fill="black" fill-opacity="0.2"/>
<path d="M23.1733 85.8457H24.2896L25.9331 90.5435L27.5767 85.8457H28.6929L26.3813 92.2441H25.4849L23.1733 85.8457ZM22.5713 85.8457H23.6831L23.8853 90.4248V92.2441H22.5713V85.8457ZM28.1831 85.8457H29.2993V92.2441H27.981V90.4248L28.1831 85.8457ZM33.1357 86.9399L31.3955 92.2441H29.9937L32.3711 85.8457H33.2632L33.1357 86.9399ZM34.5815 92.2441L32.8369 86.9399L32.6963 85.8457H33.5972L35.9878 92.2441H34.5815ZM34.5024 89.8623V90.895H31.123V89.8623H34.5024ZM36.5811 85.8457H38.9673C39.4565 85.8457 39.877 85.9189 40.2285 86.0654C40.583 86.2119 40.8555 86.4287 41.0459 86.7158C41.2363 87.0029 41.3315 87.356 41.3315 87.7749C41.3315 88.1177 41.2729 88.4121 41.1558 88.6582C41.0415 88.9014 40.8789 89.105 40.668 89.269C40.46 89.4302 40.2153 89.5591 39.9341 89.6558L39.5166 89.8755H37.4424L37.4336 88.8472H38.9761C39.2075 88.8472 39.3994 88.8062 39.5518 88.7241C39.7041 88.6421 39.8184 88.5278 39.8945 88.3813C39.9736 88.2349 40.0132 88.0649 40.0132 87.8716C40.0132 87.6665 39.9751 87.4893 39.8989 87.3398C39.8228 87.1904 39.707 87.0762 39.5518 86.9971C39.3965 86.918 39.2017 86.8784 38.9673 86.8784H37.8994V92.2441H36.5811V85.8457ZM40.1582 92.2441L38.6992 89.3921L40.0923 89.3833L41.5688 92.1826V92.2441H40.1582ZM44.311 92.2441H42.918L42.9268 91.2158H44.311C44.6567 91.2158 44.9482 91.1382 45.1855 90.9829C45.4229 90.8247 45.6016 90.5947 45.7217 90.293C45.8447 89.9912 45.9062 89.6265 45.9062 89.1987V88.8867C45.9062 88.5586 45.8711 88.27 45.8008 88.021C45.7334 87.772 45.6323 87.5625 45.4976 87.3926C45.3628 87.2227 45.1973 87.0952 45.001 87.0103C44.8047 86.9224 44.5791 86.8784 44.3242 86.8784H42.8916V85.8457H44.3242C44.752 85.8457 45.1431 85.9189 45.4976 86.0654C45.855 86.209 46.1641 86.4155 46.4248 86.6851C46.6855 86.9546 46.8862 87.2769 47.0269 87.6519C47.1704 88.0239 47.2422 88.4385 47.2422 88.8955V89.1987C47.2422 89.6528 47.1704 90.0674 47.0269 90.4424C46.8862 90.8174 46.6855 91.1396 46.4248 91.4092C46.167 91.6758 45.8579 91.8823 45.4976 92.0288C45.1401 92.1724 44.7446 92.2441 44.311 92.2441ZM43.665 85.8457V92.2441H42.3467V85.8457H43.665ZM49.6021 85.8457V92.2441H48.2881V85.8457H49.6021Z" fill="black"/>
<path d="M23.1733 120.09H24.2896L25.9331 124.788L27.5767 120.09H28.6929L26.3813 126.488H25.4849L23.1733 120.09ZM22.5713 120.09H23.6831L23.8853 124.669V126.488H22.5713V120.09ZM28.1831 120.09H29.2993V126.488H27.981V124.669L28.1831 120.09ZM34.7485 125.46V126.488H31.3428V125.46H34.7485ZM31.7734 120.09V126.488H30.4551V120.09H31.7734ZM34.3047 122.696V123.698H31.3428V122.696H34.3047ZM34.7441 120.09V121.123H31.3428V120.09H34.7441ZM35.5176 120.09H37.9038C38.3931 120.09 38.8135 120.163 39.165 120.31C39.5195 120.456 39.792 120.673 39.9824 120.96C40.1729 121.247 40.2681 121.6 40.2681 122.019C40.2681 122.362 40.2095 122.656 40.0923 122.902C39.978 123.146 39.8154 123.349 39.6045 123.513C39.3965 123.674 39.1519 123.803 38.8706 123.9L38.4531 124.12H36.3789L36.3701 123.091H37.9126C38.144 123.091 38.3359 123.05 38.4883 122.968C38.6406 122.886 38.7549 122.772 38.8311 122.625C38.9102 122.479 38.9497 122.309 38.9497 122.116C38.9497 121.911 38.9116 121.733 38.8354 121.584C38.7593 121.435 38.6436 121.32 38.4883 121.241C38.333 121.162 38.1382 121.123 37.9038 121.123H36.8359V126.488H35.5176V120.09ZM39.0947 126.488L37.6357 123.636L39.0288 123.627L40.5054 126.427V126.488H39.0947ZM44.9922 124.366H46.3062C46.2798 124.796 46.1611 125.179 45.9502 125.513C45.7422 125.847 45.4507 126.107 45.0757 126.295C44.7036 126.482 44.2554 126.576 43.731 126.576C43.3208 126.576 42.9531 126.506 42.6279 126.365C42.3027 126.222 42.0244 126.017 41.793 125.75C41.5645 125.483 41.3901 125.161 41.27 124.783C41.1499 124.405 41.0898 123.982 41.0898 123.513V123.069C41.0898 122.601 41.1514 122.177 41.2744 121.799C41.4004 121.418 41.5791 121.095 41.8105 120.828C42.0449 120.562 42.3247 120.356 42.6499 120.213C42.9751 120.069 43.3384 119.998 43.7397 119.998C44.2729 119.998 44.7227 120.094 45.0889 120.288C45.458 120.481 45.7437 120.748 45.9458 121.087C46.1509 121.427 46.2739 121.814 46.3149 122.248H44.9966C44.9819 121.99 44.9307 121.771 44.8428 121.593C44.7549 121.411 44.6216 121.275 44.4429 121.184C44.2671 121.09 44.0327 121.043 43.7397 121.043C43.52 121.043 43.3281 121.084 43.1641 121.167C43 121.249 42.8623 121.373 42.751 121.54C42.6396 121.707 42.5562 121.918 42.5005 122.173C42.4478 122.425 42.4214 122.721 42.4214 123.061V123.513C42.4214 123.844 42.4463 124.136 42.4961 124.388C42.5459 124.637 42.6221 124.848 42.7246 125.021C42.8301 125.19 42.9648 125.319 43.1289 125.407C43.2959 125.492 43.4966 125.535 43.731 125.535C44.0063 125.535 44.2334 125.491 44.4121 125.403C44.5908 125.315 44.7271 125.185 44.8208 125.012C44.9175 124.839 44.9746 124.624 44.9922 124.366ZM47.1719 120.09H49.5581C50.0474 120.09 50.4678 120.163 50.8193 120.31C51.1738 120.456 51.4463 120.673 51.6367 120.96C51.8271 121.247 51.9224 121.6 51.9224 122.019C51.9224 122.362 51.8638 122.656 51.7466 122.902C51.6323 123.146 51.4697 123.349 51.2588 123.513C51.0508 123.674 50.8062 123.803 50.5249 123.9L50.1074 124.12H48.0332L48.0244 123.091H49.5669C49.7983 123.091 49.9902 123.05 50.1426 122.968C50.2949 122.886 50.4092 122.772 50.4854 122.625C50.5645 122.479 50.604 122.309 50.604 122.116C50.604 121.911 50.5659 121.733 50.4897 121.584C50.4136 121.435 50.2979 121.32 50.1426 121.241C49.9873 121.162 49.7925 121.123 49.5581 121.123H48.4902V126.488H47.1719V120.09ZM50.749 126.488L49.29 123.636L50.6831 123.627L52.1597 126.427V126.488H50.749ZM57.231 125.46V126.488H53.8252V125.46H57.231ZM54.2559 120.09V126.488H52.9375V120.09H54.2559ZM56.7871 122.696V123.698H53.8252V122.696H56.7871ZM57.2266 120.09V121.123H53.8252V120.09H57.2266ZM59.9644 126.488H58.5713L58.5801 125.46H59.9644C60.3101 125.46 60.6016 125.382 60.8389 125.227C61.0762 125.069 61.2549 124.839 61.375 124.537C61.498 124.235 61.5596 123.871 61.5596 123.443V123.131C61.5596 122.803 61.5244 122.514 61.4541 122.265C61.3867 122.016 61.2856 121.807 61.1509 121.637C61.0161 121.467 60.8506 121.339 60.6543 121.254C60.458 121.167 60.2324 121.123 59.9775 121.123H58.5449V120.09H59.9775C60.4053 120.09 60.7964 120.163 61.1509 120.31C61.5083 120.453 61.8174 120.66 62.0781 120.929C62.3389 121.199 62.5396 121.521 62.6802 121.896C62.8237 122.268 62.8955 122.683 62.8955 123.14V123.443C62.8955 123.897 62.8237 124.312 62.6802 124.687C62.5396 125.062 62.3389 125.384 62.0781 125.653C61.8203 125.92 61.5112 126.126 61.1509 126.273C60.7935 126.417 60.3979 126.488 59.9644 126.488ZM59.3184 120.09V126.488H58V120.09H59.3184ZM65.2554 120.09V126.488H63.9414V120.09H65.2554Z" fill="black"/>
<path d="M25.1597 157.889V153.455H26.4736V157.889C26.4736 158.317 26.3799 158.685 26.1924 158.992C26.0049 159.297 25.7485 159.531 25.4233 159.695C25.1011 159.859 24.7378 159.941 24.3335 159.941C23.9146 159.941 23.5439 159.871 23.2217 159.73C22.8994 159.59 22.646 159.375 22.4614 159.084C22.2769 158.792 22.1846 158.421 22.1846 157.973H23.5073C23.5073 158.207 23.5396 158.393 23.604 158.531C23.6714 158.668 23.7666 158.767 23.8896 158.825C24.0127 158.884 24.1606 158.913 24.3335 158.913C24.5005 158.913 24.6455 158.874 24.7686 158.794C24.8916 158.715 24.9868 158.6 25.0542 158.447C25.1245 158.295 25.1597 158.109 25.1597 157.889ZM31.8921 158.825V159.854H28.4863V158.825H31.8921ZM28.917 153.455V159.854H27.5986V153.455H28.917ZM31.4482 156.061V157.063H28.4863V156.061H31.4482ZM31.8877 153.455V154.488H28.4863V153.455H31.8877ZM36.1943 153.455H37.5083V157.683C37.5083 158.175 37.4028 158.589 37.1919 158.926C36.9839 159.263 36.6953 159.517 36.3262 159.687C35.96 159.856 35.5381 159.941 35.0605 159.941C34.583 159.941 34.1582 159.856 33.7861 159.687C33.417 159.517 33.127 159.263 32.916 158.926C32.708 158.589 32.604 158.175 32.604 157.683V153.455H33.9224V157.683C33.9224 157.97 33.9678 158.204 34.0586 158.386C34.1494 158.567 34.2798 158.701 34.4497 158.786C34.6226 158.871 34.8262 158.913 35.0605 158.913C35.3008 158.913 35.5044 158.871 35.6714 158.786C35.8413 158.701 35.9702 158.567 36.0581 158.386C36.1489 158.204 36.1943 157.97 36.1943 157.683V153.455ZM40.5581 159.854H39.165L39.1738 158.825H40.5581C40.9038 158.825 41.1953 158.748 41.4326 158.592C41.6699 158.434 41.8486 158.204 41.9688 157.902C42.0918 157.601 42.1533 157.236 42.1533 156.808V156.496C42.1533 156.168 42.1182 155.879 42.0479 155.63C41.9805 155.381 41.8794 155.172 41.7446 155.002C41.6099 154.832 41.4443 154.705 41.248 154.62C41.0518 154.532 40.8262 154.488 40.5713 154.488H39.1387V153.455H40.5713C40.999 153.455 41.3901 153.528 41.7446 153.675C42.1021 153.818 42.4111 154.025 42.6719 154.294C42.9326 154.564 43.1333 154.886 43.2739 155.261C43.4175 155.633 43.4893 156.048 43.4893 156.505V156.808C43.4893 157.262 43.4175 157.677 43.2739 158.052C43.1333 158.427 42.9326 158.749 42.6719 159.019C42.4141 159.285 42.105 159.492 41.7446 159.638C41.3872 159.782 40.9917 159.854 40.5581 159.854ZM39.9121 153.455V159.854H38.5938V153.455H39.9121ZM45.8491 153.455V159.854H44.5352V153.455H45.8491Z" fill="black"/>
<path d="M24.8784 192.762L26.3857 187.699H27.8535L25.6255 194.098H24.6587L24.8784 192.762ZM23.4897 187.699L24.9927 192.762L25.2212 194.098H24.2456L22.0308 187.699H23.4897ZM32.7446 193.069V194.098H29.3389V193.069H32.7446ZM29.7695 187.699V194.098H28.4512V187.699H29.7695ZM32.3008 190.305V191.307H29.3389V190.305H32.3008ZM32.7402 187.699V188.732H29.3389V187.699H32.7402ZM38.7212 187.699V194.098H37.4028L34.832 189.809V194.098H33.5137V187.699H34.832L37.4072 191.993V187.699H38.7212ZM41.8325 194.098H40.4395L40.4482 193.069H41.8325C42.1782 193.069 42.4697 192.992 42.707 192.836C42.9443 192.678 43.123 192.448 43.2432 192.146C43.3662 191.845 43.4277 191.48 43.4277 191.052V190.74C43.4277 190.412 43.3926 190.124 43.3223 189.875C43.2549 189.625 43.1538 189.416 43.019 189.246C42.8843 189.076 42.7188 188.949 42.5225 188.864C42.3262 188.776 42.1006 188.732 41.8457 188.732H40.4131V187.699H41.8457C42.2734 187.699 42.6646 187.772 43.019 187.919C43.3765 188.062 43.6855 188.269 43.9463 188.539C44.207 188.808 44.4077 189.13 44.5483 189.505C44.6919 189.877 44.7637 190.292 44.7637 190.749V191.052C44.7637 191.506 44.6919 191.921 44.5483 192.296C44.4077 192.671 44.207 192.993 43.9463 193.263C43.6885 193.529 43.3794 193.736 43.019 193.882C42.6616 194.026 42.2661 194.098 41.8325 194.098ZM41.1865 187.699V194.098H39.8682V187.699H41.1865ZM45.7217 187.699H48.1079C48.5972 187.699 49.0176 187.772 49.3691 187.919C49.7236 188.065 49.9961 188.282 50.1865 188.569C50.377 188.856 50.4722 189.209 50.4722 189.628C50.4722 189.971 50.4136 190.266 50.2964 190.512C50.1821 190.755 50.0195 190.958 49.8086 191.123C49.6006 191.284 49.356 191.413 49.0747 191.509L48.6572 191.729H46.583L46.5742 190.701H48.1167C48.3481 190.701 48.54 190.66 48.6924 190.578C48.8447 190.496 48.959 190.381 49.0352 190.235C49.1143 190.088 49.1538 189.918 49.1538 189.725C49.1538 189.52 49.1157 189.343 49.0396 189.193C48.9634 189.044 48.8477 188.93 48.6924 188.851C48.5371 188.771 48.3423 188.732 48.1079 188.732H47.04V194.098H45.7217V187.699ZM49.2988 194.098L47.8398 191.246L49.2329 191.237L50.7095 194.036V194.098H49.2988ZM55.7808 193.069V194.098H52.375V193.069H55.7808ZM52.8057 187.699V194.098H51.4873V187.699H52.8057ZM55.3369 190.305V191.307H52.375V190.305H55.3369ZM55.7764 187.699V188.732H52.375V187.699H55.7764ZM58.5142 194.098H57.1211L57.1299 193.069H58.5142C58.8599 193.069 59.1514 192.992 59.3887 192.836C59.626 192.678 59.8047 192.448 59.9248 192.146C60.0479 191.845 60.1094 191.48 60.1094 191.052V190.74C60.1094 190.412 60.0742 190.124 60.0039 189.875C59.9365 189.625 59.8354 189.416 59.7007 189.246C59.5659 189.076 59.4004 188.949 59.2041 188.864C59.0078 188.776 58.7822 188.732 58.5273 188.732H57.0947V187.699H58.5273C58.9551 187.699 59.3462 187.772 59.7007 187.919C60.0581 188.062 60.3672 188.269 60.6279 188.539C60.8887 188.808 61.0894 189.13 61.23 189.505C61.3735 189.877 61.4453 190.292 61.4453 190.749V191.052C61.4453 191.506 61.3735 191.921 61.23 192.296C61.0894 192.671 60.8887 192.993 60.6279 193.263C60.3701 193.529 60.061 193.736 59.7007 193.882C59.3433 194.026 58.9478 194.098 58.5142 194.098ZM57.8682 187.699V194.098H56.5498V187.699H57.8682ZM63.8052 187.699V194.098H62.4912V187.699H63.8052Z" fill="black"/>
<path d="M25.9023 226.667C25.9023 226.553 25.8848 226.451 25.8496 226.36C25.8174 226.266 25.7559 226.181 25.665 226.105C25.5742 226.026 25.4468 225.948 25.2827 225.872C25.1187 225.796 24.9062 225.717 24.6455 225.635C24.3555 225.541 24.0801 225.436 23.8193 225.318C23.5615 225.201 23.333 225.065 23.1338 224.91C22.9375 224.751 22.7822 224.568 22.668 224.36C22.5566 224.152 22.501 223.911 22.501 223.635C22.501 223.369 22.5596 223.127 22.6768 222.91C22.7939 222.69 22.958 222.503 23.1689 222.348C23.3799 222.189 23.6289 222.068 23.916 221.983C24.2061 221.898 24.5239 221.855 24.8696 221.855C25.3413 221.855 25.7529 221.94 26.1045 222.11C26.4561 222.28 26.7285 222.513 26.9219 222.809C27.1182 223.105 27.2163 223.443 27.2163 223.824H25.9067C25.9067 223.637 25.8672 223.473 25.7881 223.332C25.7119 223.188 25.5947 223.076 25.4365 222.994C25.2812 222.912 25.085 222.871 24.8477 222.871C24.6191 222.871 24.4287 222.906 24.2764 222.976C24.124 223.043 24.0098 223.136 23.9336 223.253C23.8574 223.367 23.8193 223.496 23.8193 223.64C23.8193 223.748 23.8457 223.846 23.8984 223.934C23.9541 224.022 24.0361 224.104 24.1445 224.18C24.2529 224.256 24.3862 224.328 24.5444 224.396C24.7026 224.463 24.8857 224.529 25.0938 224.593C25.4424 224.699 25.7485 224.817 26.0122 224.949C26.2788 225.081 26.5015 225.229 26.6802 225.393C26.8589 225.557 26.9937 225.743 27.0845 225.951C27.1753 226.159 27.2207 226.395 27.2207 226.659C27.2207 226.937 27.1665 227.186 27.0581 227.406C26.9497 227.625 26.793 227.812 26.5879 227.964C26.3828 228.116 26.1382 228.232 25.854 228.311C25.5698 228.39 25.252 228.43 24.9004 228.43C24.584 228.43 24.272 228.389 23.9644 228.307C23.6567 228.222 23.377 228.094 23.125 227.924C22.876 227.754 22.6768 227.538 22.5273 227.274C22.3779 227.01 22.3032 226.698 22.3032 226.338H23.626C23.626 226.537 23.6567 226.706 23.7183 226.843C23.7798 226.981 23.8662 227.092 23.9775 227.177C24.0918 227.262 24.2266 227.324 24.3818 227.362C24.54 227.4 24.7129 227.419 24.9004 227.419C25.1289 227.419 25.3164 227.387 25.4629 227.322C25.6123 227.258 25.7222 227.168 25.7925 227.054C25.8657 226.94 25.9023 226.811 25.9023 226.667ZM30.7188 223.038L28.9785 228.342H27.5767L29.9541 221.943H30.8462L30.7188 223.038ZM32.1646 228.342L30.4199 223.038L30.2793 221.943H31.1802L33.5708 228.342H32.1646ZM32.0854 225.96V226.993H28.7061V225.96H32.0854ZM34.7661 221.943H35.8823L37.5259 226.641L39.1694 221.943H40.2856L37.9741 228.342H37.0776L34.7661 221.943ZM34.1641 221.943H35.2759L35.478 226.522V228.342H34.1641V221.943ZM39.7759 221.943H40.8921V228.342H39.5737V226.522L39.7759 221.943ZM46.3413 227.313V228.342H42.9355V227.313H46.3413ZM43.3662 221.943V228.342H42.0479V221.943H43.3662ZM45.8975 224.549V225.551H42.9355V224.549H45.8975ZM46.3369 221.943V222.976H42.9355V221.943H46.3369ZM49.0747 228.342H47.6816L47.6904 227.313H49.0747C49.4204 227.313 49.7119 227.236 49.9492 227.081C50.1865 226.922 50.3652 226.692 50.4854 226.391C50.6084 226.089 50.6699 225.724 50.6699 225.296V224.984C50.6699 224.656 50.6348 224.368 50.5645 224.119C50.4971 223.87 50.396 223.66 50.2612 223.49C50.1265 223.32 49.9609 223.193 49.7646 223.108C49.5684 223.02 49.3428 222.976 49.0879 222.976H47.6553V221.943H49.0879C49.5156 221.943 49.9067 222.017 50.2612 222.163C50.6187 222.307 50.9277 222.513 51.1885 222.783C51.4492 223.052 51.6499 223.375 51.7905 223.75C51.9341 224.122 52.0059 224.536 52.0059 224.993V225.296C52.0059 225.75 51.9341 226.165 51.7905 226.54C51.6499 226.915 51.4492 227.237 51.1885 227.507C50.9307 227.773 50.6216 227.98 50.2612 228.126C49.9038 228.27 49.5083 228.342 49.0747 228.342ZM48.4287 221.943V228.342H47.1104V221.943H48.4287ZM54.3657 221.943V228.342H53.0518V221.943H54.3657Z" fill="black"/>
<path d="M24.5356 262.586H23.1426L23.1514 261.558H24.5356C24.8813 261.558 25.1729 261.48 25.4102 261.325C25.6475 261.167 25.8262 260.937 25.9463 260.635C26.0693 260.333 26.1309 259.968 26.1309 259.541V259.229C26.1309 258.9 26.0957 258.612 26.0254 258.363C25.958 258.114 25.8569 257.904 25.7222 257.734C25.5874 257.564 25.4219 257.437 25.2256 257.352C25.0293 257.264 24.8037 257.22 24.5488 257.22H23.1162V256.188H24.5488C24.9766 256.188 25.3677 256.261 25.7222 256.407C26.0796 256.551 26.3887 256.757 26.6494 257.027C26.9102 257.296 27.1108 257.619 27.2515 257.994C27.395 258.366 27.4668 258.78 27.4668 259.237V259.541C27.4668 259.995 27.395 260.409 27.2515 260.784C27.1108 261.159 26.9102 261.481 26.6494 261.751C26.3916 262.018 26.0825 262.224 25.7222 262.371C25.3647 262.514 24.9692 262.586 24.5356 262.586ZM23.8896 256.188V262.586H22.5713V256.188H23.8896ZM29.8267 256.188V262.586H28.5127V256.188H29.8267ZM31.6636 256.188H32.7798L34.4233 260.885L36.0669 256.188H37.1831L34.8716 262.586H33.9751L31.6636 256.188ZM31.0615 256.188H32.1733L32.3755 260.767V262.586H31.0615V256.188ZM36.6733 256.188H37.7896V262.586H36.4712V260.767L36.6733 256.188ZM41.626 257.282L39.8857 262.586H38.4839L40.8613 256.188H41.7534L41.626 257.282ZM43.0718 262.586L41.3271 257.282L41.1865 256.188H42.0874L44.478 262.586H43.0718ZM42.9927 260.204V261.237H39.6133V260.204H42.9927ZM50.2788 256.188V262.586H48.9604L46.3896 258.297V262.586H45.0713V256.188H46.3896L48.9648 260.481V256.188H50.2788ZM55.1348 260.463H56.4487C56.4224 260.894 56.3037 261.276 56.0928 261.61C55.8848 261.944 55.5933 262.205 55.2183 262.393C54.8462 262.58 54.3979 262.674 53.8735 262.674C53.4634 262.674 53.0957 262.604 52.7705 262.463C52.4453 262.319 52.167 262.114 51.9355 261.848C51.707 261.581 51.5327 261.259 51.4126 260.881C51.2925 260.503 51.2324 260.08 51.2324 259.611V259.167C51.2324 258.698 51.2939 258.275 51.417 257.897C51.543 257.516 51.7217 257.192 51.9531 256.926C52.1875 256.659 52.4673 256.454 52.7925 256.311C53.1177 256.167 53.481 256.095 53.8823 256.095C54.4155 256.095 54.8652 256.192 55.2314 256.385C55.6006 256.579 55.8862 256.845 56.0884 257.185C56.2935 257.525 56.4165 257.912 56.4575 258.345H55.1392C55.1245 258.087 55.0732 257.869 54.9854 257.69C54.8975 257.509 54.7642 257.373 54.5854 257.282C54.4097 257.188 54.1753 257.141 53.8823 257.141C53.6626 257.141 53.4707 257.182 53.3066 257.264C53.1426 257.346 53.0049 257.471 52.8936 257.638C52.7822 257.805 52.6987 258.016 52.6431 258.271C52.5903 258.522 52.564 258.818 52.564 259.158V259.611C52.564 259.942 52.5889 260.233 52.6387 260.485C52.6885 260.734 52.7646 260.945 52.8672 261.118C52.9727 261.288 53.1074 261.417 53.2715 261.505C53.4385 261.59 53.6392 261.632 53.8735 261.632C54.1489 261.632 54.376 261.588 54.5547 261.5C54.7334 261.413 54.8696 261.282 54.9634 261.109C55.0601 260.937 55.1172 260.721 55.1348 260.463ZM61.5815 258.793V259.822H58.2417V258.793H61.5815ZM58.6328 256.188V262.586H57.3145V256.188H58.6328ZM62.522 256.188V262.586H61.208V256.188H62.522ZM67.9624 261.558V262.586H64.5566V261.558H67.9624ZM64.9873 256.188V262.586H63.6689V256.188H64.9873ZM67.5186 258.793V259.795H64.5566V258.793H67.5186ZM67.958 256.188V257.22H64.5566V256.188H67.958Z" fill="black"/>
<path d="M338.89 51.6016V58H337.571V51.6016H338.89ZM341.438 54.335V55.3633H338.529V54.335H341.438ZM341.746 51.6016V52.6343H338.529V51.6016H341.746ZM344.523 58.0879C344.154 58.0879 343.823 58.0293 343.53 57.9121C343.237 57.792 342.988 57.6265 342.783 57.4155C342.581 57.2046 342.426 56.96 342.317 56.6816C342.209 56.4004 342.155 56.1016 342.155 55.7852V55.6094C342.155 55.249 342.206 54.9194 342.309 54.6206C342.411 54.3218 342.558 54.0625 342.748 53.8428C342.941 53.623 343.176 53.4546 343.451 53.3374C343.727 53.2173 344.037 53.1572 344.383 53.1572C344.72 53.1572 345.019 53.2129 345.279 53.3242C345.54 53.4355 345.758 53.5938 345.934 53.7988C346.113 54.0039 346.248 54.25 346.338 54.5371C346.429 54.8213 346.475 55.1377 346.475 55.4863V56.0137H342.695V55.1699H345.231V55.0732C345.231 54.8975 345.199 54.7407 345.134 54.603C345.073 54.4624 344.979 54.3511 344.853 54.269C344.727 54.187 344.566 54.146 344.37 54.146C344.203 54.146 344.059 54.1826 343.939 54.2559C343.819 54.3291 343.721 54.4316 343.645 54.5635C343.571 54.6953 343.516 54.8506 343.478 55.0293C343.442 55.2051 343.425 55.3984 343.425 55.6094V55.7852C343.425 55.9756 343.451 56.1514 343.504 56.3125C343.56 56.4736 343.637 56.6128 343.737 56.73C343.839 56.8472 343.962 56.938 344.106 57.0024C344.252 57.0669 344.418 57.0991 344.603 57.0991C344.831 57.0991 345.043 57.0552 345.24 56.9673C345.439 56.8765 345.61 56.7402 345.754 56.5586L346.369 57.2266C346.27 57.3701 346.133 57.5078 345.96 57.6396C345.791 57.7715 345.585 57.8799 345.345 57.9648C345.105 58.0469 344.831 58.0879 344.523 58.0879ZM348.461 54.2822V58H347.195V53.2451H348.386L348.461 54.2822ZM349.894 53.2144L349.872 54.3877C349.81 54.3789 349.735 54.3716 349.647 54.3657C349.562 54.3569 349.485 54.3525 349.415 54.3525C349.236 54.3525 349.081 54.376 348.949 54.4229C348.82 54.4668 348.711 54.5327 348.624 54.6206C348.539 54.7085 348.474 54.8154 348.43 54.9414C348.389 55.0674 348.366 55.2109 348.36 55.3721L348.105 55.293C348.105 54.9854 348.136 54.7026 348.197 54.4448C348.259 54.1841 348.348 53.957 348.465 53.7637C348.585 53.5703 348.732 53.4209 348.905 53.3154C349.078 53.21 349.275 53.1572 349.498 53.1572C349.568 53.1572 349.64 53.1631 349.713 53.1748C349.787 53.1836 349.847 53.1968 349.894 53.2144ZM351.757 54.2295V58H350.487V53.2451H351.678L351.757 54.2295ZM351.581 55.4556H351.229C351.229 55.1245 351.269 54.8198 351.348 54.5415C351.43 54.2603 351.549 54.0171 351.704 53.812C351.862 53.604 352.057 53.4429 352.289 53.3286C352.52 53.2144 352.788 53.1572 353.093 53.1572C353.304 53.1572 353.497 53.1895 353.673 53.2539C353.849 53.3154 354 53.4136 354.125 53.5483C354.254 53.6802 354.354 53.853 354.424 54.0669C354.495 54.2778 354.53 54.5312 354.53 54.8271V58H353.264V54.9678C353.264 54.751 353.235 54.584 353.176 54.4668C353.118 54.3496 353.034 54.2676 352.926 54.2207C352.82 54.1738 352.693 54.1504 352.543 54.1504C352.379 54.1504 352.236 54.1841 352.113 54.2515C351.993 54.3188 351.893 54.4126 351.814 54.5327C351.735 54.6499 351.676 54.7876 351.638 54.9458C351.6 55.104 351.581 55.2739 351.581 55.4556ZM354.411 55.3105L353.958 55.3677C353.958 55.0571 353.997 54.7686 354.073 54.502C354.152 54.2354 354.268 54.001 354.42 53.7988C354.575 53.5967 354.767 53.4399 354.996 53.3286C355.224 53.2144 355.488 53.1572 355.787 53.1572C356.015 53.1572 356.223 53.1909 356.411 53.2583C356.598 53.3228 356.758 53.4268 356.89 53.5703C357.024 53.7109 357.127 53.8955 357.197 54.124C357.271 54.3525 357.307 54.6323 357.307 54.9634V58H356.037V54.9634C356.037 54.7437 356.008 54.5767 355.949 54.4624C355.894 54.3452 355.812 54.2646 355.703 54.2207C355.598 54.1738 355.472 54.1504 355.325 54.1504C355.173 54.1504 355.04 54.1812 354.925 54.2427C354.811 54.3013 354.716 54.3833 354.64 54.4888C354.563 54.5942 354.506 54.7173 354.468 54.8579C354.43 54.9956 354.411 55.1465 354.411 55.3105ZM360.476 58.0879C360.106 58.0879 359.775 58.0293 359.482 57.9121C359.189 57.792 358.94 57.6265 358.735 57.4155C358.533 57.2046 358.378 56.96 358.27 56.6816C358.161 56.4004 358.107 56.1016 358.107 55.7852V55.6094C358.107 55.249 358.158 54.9194 358.261 54.6206C358.363 54.3218 358.51 54.0625 358.7 53.8428C358.894 53.623 359.128 53.4546 359.403 53.3374C359.679 53.2173 359.989 53.1572 360.335 53.1572C360.672 53.1572 360.971 53.2129 361.231 53.3242C361.492 53.4355 361.71 53.5938 361.886 53.7988C362.065 54.0039 362.2 54.25 362.291 54.5371C362.381 54.8213 362.427 55.1377 362.427 55.4863V56.0137H358.647V55.1699H361.183V55.0732C361.183 54.8975 361.151 54.7407 361.086 54.603C361.025 54.4624 360.931 54.3511 360.805 54.269C360.679 54.187 360.518 54.146 360.322 54.146C360.155 54.146 360.011 54.1826 359.891 54.2559C359.771 54.3291 359.673 54.4316 359.597 54.5635C359.523 54.6953 359.468 54.8506 359.43 55.0293C359.395 55.2051 359.377 55.3984 359.377 55.6094V55.7852C359.377 55.9756 359.403 56.1514 359.456 56.3125C359.512 56.4736 359.589 56.6128 359.689 56.73C359.792 56.8472 359.915 56.938 360.058 57.0024C360.205 57.0669 360.37 57.0991 360.555 57.0991C360.783 57.0991 360.996 57.0552 361.192 56.9673C361.391 56.8765 361.562 56.7402 361.706 56.5586L362.321 57.2266C362.222 57.3701 362.085 57.5078 361.913 57.6396C361.743 57.7715 361.538 57.8799 361.297 57.9648C361.057 58.0469 360.783 58.0879 360.476 58.0879ZM359.583 52.5991L360.445 51.2456H361.82L360.612 52.5991H359.583Z" fill="black" fill-opacity="0.2"/>
<path d="M338.336 91.2817H338.419C338.771 91.2817 339.073 91.2393 339.325 91.1543C339.58 91.0664 339.789 90.9404 339.953 90.7764C340.117 90.6123 340.239 90.4116 340.318 90.1743C340.397 89.9341 340.437 89.6616 340.437 89.3569V88.144C340.437 87.9126 340.413 87.709 340.366 87.5332C340.322 87.3574 340.258 87.2124 340.173 87.0981C340.091 86.981 339.994 86.8931 339.883 86.8345C339.774 86.7759 339.654 86.7466 339.522 86.7466C339.382 86.7466 339.257 86.7817 339.149 86.8521C339.041 86.9194 338.948 87.0117 338.872 87.1289C338.799 87.2461 338.742 87.3809 338.701 87.5332C338.663 87.6826 338.644 87.8394 338.644 88.0034C338.644 88.1675 338.663 88.3242 338.701 88.4736C338.739 88.6201 338.796 88.7505 338.872 88.8647C338.948 88.9761 339.043 89.0654 339.158 89.1328C339.272 89.1973 339.407 89.2295 339.562 89.2295C339.711 89.2295 339.845 89.2017 339.962 89.146C340.082 89.0874 340.183 89.0112 340.265 88.9175C340.35 88.8237 340.415 88.7197 340.458 88.6055C340.505 88.4912 340.529 88.3755 340.529 88.2583L340.946 88.4868C340.946 88.6919 340.902 88.894 340.814 89.0933C340.727 89.2925 340.604 89.4741 340.445 89.6382C340.29 89.7993 340.11 89.9282 339.905 90.0249C339.7 90.1216 339.48 90.1699 339.246 90.1699C338.947 90.1699 338.682 90.1157 338.45 90.0073C338.219 89.896 338.022 89.7437 337.861 89.5503C337.703 89.354 337.583 89.1255 337.501 88.8647C337.419 88.604 337.378 88.3213 337.378 88.0166C337.378 87.7061 337.428 87.4146 337.527 87.1421C337.63 86.8696 337.775 86.6294 337.962 86.4214C338.153 86.2134 338.38 86.0508 338.644 85.9336C338.91 85.8135 339.206 85.7534 339.531 85.7534C339.856 85.7534 340.152 85.8164 340.419 85.9424C340.686 86.0684 340.914 86.2471 341.104 86.4785C341.295 86.707 341.441 86.981 341.544 87.3003C341.649 87.6196 341.702 87.9741 341.702 88.3638V88.8032C341.702 89.2192 341.657 89.606 341.566 89.9634C341.478 90.3208 341.345 90.6445 341.166 90.9346C340.99 91.2217 340.771 91.4678 340.507 91.6729C340.246 91.8779 339.943 92.0347 339.597 92.1431C339.251 92.2515 338.865 92.3057 338.437 92.3057H338.336V91.2817ZM347.006 88.4517V89.48H343.667V88.4517H347.006ZM344.058 85.8457V92.2441H342.739V85.8457H344.058ZM347.947 85.8457V92.2441H346.633V85.8457H347.947ZM353.752 89.001V89.9941H351.269V89.001H353.752ZM361.372 91.2554V92.2441H356.995V91.4004L359.065 89.1812C359.273 88.9497 359.437 88.7461 359.557 88.5703C359.677 88.3916 359.764 88.2319 359.816 88.0913C359.872 87.9478 359.9 87.8115 359.9 87.6826C359.9 87.4893 359.868 87.3237 359.803 87.186C359.739 87.0454 359.644 86.937 359.518 86.8608C359.395 86.7847 359.242 86.7466 359.061 86.7466C358.867 86.7466 358.7 86.7935 358.56 86.8872C358.422 86.981 358.316 87.1113 358.243 87.2783C358.173 87.4453 358.138 87.6343 358.138 87.8452H356.868C356.868 87.4644 356.958 87.1157 357.14 86.7993C357.322 86.48 357.578 86.2266 357.909 86.0391C358.24 85.8486 358.633 85.7534 359.087 85.7534C359.535 85.7534 359.913 85.8267 360.221 85.9731C360.531 86.1167 360.766 86.3247 360.924 86.5972C361.085 86.8667 361.166 87.189 361.166 87.564C361.166 87.7749 361.132 87.9814 361.064 88.1836C360.997 88.3828 360.9 88.582 360.774 88.7812C360.651 88.9775 360.502 89.1768 360.326 89.3789C360.15 89.5811 359.956 89.7905 359.742 90.0073L358.63 91.2554H361.372ZM363.459 88.4956H364.136C364.353 88.4956 364.532 88.459 364.672 88.3857C364.813 88.3096 364.917 88.2041 364.984 88.0693C365.055 87.9316 365.09 87.772 365.09 87.5903C365.09 87.4263 365.058 87.2812 364.993 87.1553C364.932 87.0264 364.836 86.9268 364.708 86.8564C364.579 86.7832 364.416 86.7466 364.22 86.7466C364.064 86.7466 363.921 86.7773 363.789 86.8389C363.657 86.9004 363.552 86.9868 363.473 87.0981C363.394 87.2095 363.354 87.3442 363.354 87.5024H362.084C362.084 87.1509 362.178 86.8447 362.365 86.584C362.556 86.3232 362.811 86.1196 363.13 85.9731C363.449 85.8267 363.801 85.7534 364.185 85.7534C364.618 85.7534 364.998 85.8237 365.323 85.9644C365.648 86.1021 365.901 86.3057 366.083 86.5752C366.265 86.8447 366.355 87.1787 366.355 87.5771C366.355 87.7793 366.309 87.9756 366.215 88.166C366.121 88.3535 365.986 88.5234 365.811 88.6758C365.638 88.8252 365.427 88.9453 365.178 89.0361C364.929 89.124 364.649 89.168 364.338 89.168H363.459V88.4956ZM363.459 89.458V88.8032H364.338C364.687 88.8032 364.993 88.8428 365.257 88.9219C365.521 89.001 365.742 89.1152 365.92 89.2646C366.099 89.4111 366.234 89.5854 366.325 89.7876C366.416 89.9868 366.461 90.208 366.461 90.4512C366.461 90.75 366.404 91.0166 366.29 91.251C366.175 91.4824 366.014 91.6787 365.806 91.8398C365.601 92.001 365.361 92.124 365.085 92.209C364.81 92.291 364.51 92.332 364.185 92.332C363.915 92.332 363.65 92.2954 363.389 92.2222C363.131 92.146 362.897 92.0332 362.686 91.8838C362.478 91.7314 362.311 91.541 362.185 91.3125C362.062 91.0811 362 90.8071 362 90.4907H363.271C363.271 90.6548 363.312 90.8013 363.394 90.9302C363.476 91.0591 363.588 91.1602 363.732 91.2334C363.878 91.3066 364.041 91.3433 364.22 91.3433C364.422 91.3433 364.595 91.3066 364.738 91.2334C364.885 91.1572 364.996 91.0518 365.072 90.917C365.151 90.7793 365.191 90.6196 365.191 90.438C365.191 90.2036 365.148 90.0161 365.063 89.8755C364.979 89.7319 364.857 89.6265 364.699 89.5591C364.541 89.4917 364.353 89.458 364.136 89.458H363.459ZM371.73 88.4517V89.48H368.39V88.4517H371.73ZM368.781 85.8457V92.2441H367.463V85.8457H368.781ZM372.67 85.8457V92.2441H371.356V85.8457H372.67Z" fill="black"/>
<path d="M338.336 125.526H338.419C338.771 125.526 339.073 125.483 339.325 125.398C339.58 125.311 339.789 125.185 339.953 125.021C340.117 124.856 340.239 124.656 340.318 124.418C340.397 124.178 340.437 123.906 340.437 123.601V122.388C340.437 122.157 340.413 121.953 340.366 121.777C340.322 121.602 340.258 121.457 340.173 121.342C340.091 121.225 339.994 121.137 339.883 121.079C339.774 121.02 339.654 120.991 339.522 120.991C339.382 120.991 339.257 121.026 339.149 121.096C339.041 121.164 338.948 121.256 338.872 121.373C338.799 121.49 338.742 121.625 338.701 121.777C338.663 121.927 338.644 122.083 338.644 122.248C338.644 122.412 338.663 122.568 338.701 122.718C338.739 122.864 338.796 122.995 338.872 123.109C338.948 123.22 339.043 123.31 339.158 123.377C339.272 123.441 339.407 123.474 339.562 123.474C339.711 123.474 339.845 123.446 339.962 123.39C340.082 123.332 340.183 123.255 340.265 123.162C340.35 123.068 340.415 122.964 340.458 122.85C340.505 122.735 340.529 122.62 340.529 122.502L340.946 122.731C340.946 122.936 340.902 123.138 340.814 123.337C340.727 123.537 340.604 123.718 340.445 123.882C340.29 124.043 340.11 124.172 339.905 124.269C339.7 124.366 339.48 124.414 339.246 124.414C338.947 124.414 338.682 124.36 338.45 124.251C338.219 124.14 338.022 123.988 337.861 123.794C337.703 123.598 337.583 123.37 337.501 123.109C337.419 122.848 337.378 122.565 337.378 122.261C337.378 121.95 337.428 121.659 337.527 121.386C337.63 121.114 337.775 120.874 337.962 120.666C338.153 120.458 338.38 120.295 338.644 120.178C338.91 120.058 339.206 119.998 339.531 119.998C339.856 119.998 340.152 120.061 340.419 120.187C340.686 120.312 340.914 120.491 341.104 120.723C341.295 120.951 341.441 121.225 341.544 121.544C341.649 121.864 341.702 122.218 341.702 122.608V123.047C341.702 123.463 341.657 123.85 341.566 124.208C341.478 124.565 341.345 124.889 341.166 125.179C340.99 125.466 340.771 125.712 340.507 125.917C340.246 126.122 339.943 126.279 339.597 126.387C339.251 126.496 338.865 126.55 338.437 126.55H338.336V125.526ZM347.006 122.696V123.724H343.667V122.696H347.006ZM344.058 120.09V126.488H342.739V120.09H344.058ZM347.947 120.09V126.488H346.633V120.09H347.947ZM353.752 123.245V124.238H351.269V123.245H353.752ZM361.372 125.5V126.488H356.995V125.645L359.065 123.425C359.273 123.194 359.437 122.99 359.557 122.814C359.677 122.636 359.764 122.476 359.816 122.335C359.872 122.192 359.9 122.056 359.9 121.927C359.9 121.733 359.868 121.568 359.803 121.43C359.739 121.29 359.644 121.181 359.518 121.105C359.395 121.029 359.242 120.991 359.061 120.991C358.867 120.991 358.7 121.038 358.56 121.131C358.422 121.225 358.316 121.355 358.243 121.522C358.173 121.689 358.138 121.878 358.138 122.089H356.868C356.868 121.708 356.958 121.36 357.14 121.043C357.322 120.724 357.578 120.471 357.909 120.283C358.24 120.093 358.633 119.998 359.087 119.998C359.535 119.998 359.913 120.071 360.221 120.217C360.531 120.361 360.766 120.569 360.924 120.841C361.085 121.111 361.166 121.433 361.166 121.808C361.166 122.019 361.132 122.226 361.064 122.428C360.997 122.627 360.9 122.826 360.774 123.025C360.651 123.222 360.502 123.421 360.326 123.623C360.15 123.825 359.956 124.035 359.742 124.251L358.63 125.5H361.372ZM363.459 122.74H364.136C364.353 122.74 364.532 122.703 364.672 122.63C364.813 122.554 364.917 122.448 364.984 122.313C365.055 122.176 365.09 122.016 365.09 121.834C365.09 121.67 365.058 121.525 364.993 121.399C364.932 121.271 364.836 121.171 364.708 121.101C364.579 121.027 364.416 120.991 364.22 120.991C364.064 120.991 363.921 121.021 363.789 121.083C363.657 121.145 363.552 121.231 363.473 121.342C363.394 121.454 363.354 121.588 363.354 121.747H362.084C362.084 121.395 362.178 121.089 362.365 120.828C362.556 120.567 362.811 120.364 363.13 120.217C363.449 120.071 363.801 119.998 364.185 119.998C364.618 119.998 364.998 120.068 365.323 120.208C365.648 120.346 365.901 120.55 366.083 120.819C366.265 121.089 366.355 121.423 366.355 121.821C366.355 122.023 366.309 122.22 366.215 122.41C366.121 122.598 365.986 122.768 365.811 122.92C365.638 123.069 365.427 123.189 365.178 123.28C364.929 123.368 364.649 123.412 364.338 123.412H363.459V122.74ZM363.459 123.702V123.047H364.338C364.687 123.047 364.993 123.087 365.257 123.166C365.521 123.245 365.742 123.359 365.92 123.509C366.099 123.655 366.234 123.83 366.325 124.032C366.416 124.231 366.461 124.452 366.461 124.695C366.461 124.994 366.404 125.261 366.29 125.495C366.175 125.727 366.014 125.923 365.806 126.084C365.601 126.245 365.361 126.368 365.085 126.453C364.81 126.535 364.51 126.576 364.185 126.576C363.915 126.576 363.65 126.54 363.389 126.466C363.131 126.39 362.897 126.277 362.686 126.128C362.478 125.976 362.311 125.785 362.185 125.557C362.062 125.325 362 125.051 362 124.735H363.271C363.271 124.899 363.312 125.045 363.394 125.174C363.476 125.303 363.588 125.404 363.732 125.478C363.878 125.551 364.041 125.587 364.22 125.587C364.422 125.587 364.595 125.551 364.738 125.478C364.885 125.401 364.996 125.296 365.072 125.161C365.151 125.023 365.191 124.864 365.191 124.682C365.191 124.448 365.148 124.26 365.063 124.12C364.979 123.976 364.857 123.871 364.699 123.803C364.541 123.736 364.353 123.702 364.136 123.702H363.459ZM371.73 122.696V123.724H368.39V122.696H371.73ZM368.781 120.09V126.488H367.463V120.09H368.781ZM372.67 120.09V126.488H371.356V120.09H372.67Z" fill="black"/>
<path d="M338.336 158.891H338.419C338.771 158.891 339.073 158.849 339.325 158.764C339.58 158.676 339.789 158.55 339.953 158.386C340.117 158.222 340.239 158.021 340.318 157.784C340.397 157.543 340.437 157.271 340.437 156.966V155.753C340.437 155.522 340.413 155.318 340.366 155.143C340.322 154.967 340.258 154.822 340.173 154.708C340.091 154.59 339.994 154.502 339.883 154.444C339.774 154.385 339.654 154.356 339.522 154.356C339.382 154.356 339.257 154.391 339.149 154.461C339.041 154.529 338.948 154.621 338.872 154.738C338.799 154.855 338.742 154.99 338.701 155.143C338.663 155.292 338.644 155.449 338.644 155.613C338.644 155.777 338.663 155.934 338.701 156.083C338.739 156.229 338.796 156.36 338.872 156.474C338.948 156.585 339.043 156.675 339.158 156.742C339.272 156.807 339.407 156.839 339.562 156.839C339.711 156.839 339.845 156.811 339.962 156.755C340.082 156.697 340.183 156.621 340.265 156.527C340.35 156.433 340.415 156.329 340.458 156.215C340.505 156.101 340.529 155.985 340.529 155.868L340.946 156.096C340.946 156.301 340.902 156.503 340.814 156.703C340.727 156.902 340.604 157.083 340.445 157.248C340.29 157.409 340.11 157.538 339.905 157.634C339.7 157.731 339.48 157.779 339.246 157.779C338.947 157.779 338.682 157.725 338.45 157.617C338.219 157.505 338.022 157.353 337.861 157.16C337.703 156.963 337.583 156.735 337.501 156.474C337.419 156.213 337.378 155.931 337.378 155.626C337.378 155.315 337.428 155.024 337.527 154.751C337.63 154.479 337.775 154.239 337.962 154.031C338.153 153.823 338.38 153.66 338.644 153.543C338.91 153.423 339.206 153.363 339.531 153.363C339.856 153.363 340.152 153.426 340.419 153.552C340.686 153.678 340.914 153.856 341.104 154.088C341.295 154.316 341.441 154.59 341.544 154.91C341.649 155.229 341.702 155.583 341.702 155.973V156.413C341.702 156.829 341.657 157.215 341.566 157.573C341.478 157.93 341.345 158.254 341.166 158.544C340.99 158.831 340.771 159.077 340.507 159.282C340.246 159.487 339.943 159.644 339.597 159.752C339.251 159.861 338.865 159.915 338.437 159.915H338.336V158.891ZM347.006 156.061V157.089H343.667V156.061H347.006ZM344.058 153.455V159.854H342.739V153.455H344.058ZM347.947 153.455V159.854H346.633V153.455H347.947ZM353.752 156.61V157.604H351.269V156.61H353.752ZM361.372 158.865V159.854H356.995V159.01L359.065 156.791C359.273 156.559 359.437 156.355 359.557 156.18C359.677 156.001 359.764 155.841 359.816 155.701C359.872 155.557 359.9 155.421 359.9 155.292C359.9 155.099 359.868 154.933 359.803 154.795C359.739 154.655 359.644 154.546 359.518 154.47C359.395 154.394 359.242 154.356 359.061 154.356C358.867 154.356 358.7 154.403 358.56 154.497C358.422 154.59 358.316 154.721 358.243 154.888C358.173 155.055 358.138 155.244 358.138 155.455H356.868C356.868 155.074 356.958 154.725 357.14 154.409C357.322 154.089 357.578 153.836 357.909 153.648C358.24 153.458 358.633 153.363 359.087 153.363C359.535 153.363 359.913 153.436 360.221 153.583C360.531 153.726 360.766 153.934 360.924 154.207C361.085 154.476 361.166 154.798 361.166 155.173C361.166 155.384 361.132 155.591 361.064 155.793C360.997 155.992 360.9 156.191 360.774 156.391C360.651 156.587 360.502 156.786 360.326 156.988C360.15 157.19 359.956 157.4 359.742 157.617L358.63 158.865H361.372ZM363.459 156.105H364.136C364.353 156.105 364.532 156.068 364.672 155.995C364.813 155.919 364.917 155.813 364.984 155.679C365.055 155.541 365.09 155.381 365.09 155.2C365.09 155.036 365.058 154.891 364.993 154.765C364.932 154.636 364.836 154.536 364.708 154.466C364.579 154.393 364.416 154.356 364.22 154.356C364.064 154.356 363.921 154.387 363.789 154.448C363.657 154.51 363.552 154.596 363.473 154.708C363.394 154.819 363.354 154.954 363.354 155.112H362.084C362.084 154.76 362.178 154.454 362.365 154.193C362.556 153.933 362.811 153.729 363.13 153.583C363.449 153.436 363.801 153.363 364.185 153.363C364.618 153.363 364.998 153.433 365.323 153.574C365.648 153.711 365.901 153.915 366.083 154.185C366.265 154.454 366.355 154.788 366.355 155.187C366.355 155.389 366.309 155.585 366.215 155.775C366.121 155.963 365.986 156.133 365.811 156.285C365.638 156.435 365.427 156.555 365.178 156.646C364.929 156.733 364.649 156.777 364.338 156.777H363.459V156.105ZM363.459 157.067V156.413H364.338C364.687 156.413 364.993 156.452 365.257 156.531C365.521 156.61 365.742 156.725 365.92 156.874C366.099 157.021 366.234 157.195 366.325 157.397C366.416 157.596 366.461 157.817 366.461 158.061C366.461 158.359 366.404 158.626 366.29 158.86C366.175 159.092 366.014 159.288 365.806 159.449C365.601 159.61 365.361 159.733 365.085 159.818C364.81 159.9 364.51 159.941 364.185 159.941C363.915 159.941 363.65 159.905 363.389 159.832C363.131 159.755 362.897 159.643 362.686 159.493C362.478 159.341 362.311 159.15 362.185 158.922C362.062 158.69 362 158.417 362 158.1H363.271C363.271 158.264 363.312 158.411 363.394 158.54C363.476 158.668 363.588 158.77 363.732 158.843C363.878 158.916 364.041 158.953 364.22 158.953C364.422 158.953 364.595 158.916 364.738 158.843C364.885 158.767 364.996 158.661 365.072 158.526C365.151 158.389 365.191 158.229 365.191 158.047C365.191 157.813 365.148 157.625 365.063 157.485C364.979 157.341 364.857 157.236 364.699 157.168C364.541 157.101 364.353 157.067 364.136 157.067H363.459ZM371.73 156.061V157.089H368.39V156.061H371.73ZM368.781 153.455V159.854H367.463V153.455H368.781ZM372.67 153.455V159.854H371.356V153.455H372.67Z" fill="black"/>
<path d="M340.524 187.686V194.098H339.259V189.145L337.738 189.628V188.631L340.388 187.686H340.524ZM346.914 190.336V191.443C346.914 191.924 346.863 192.338 346.76 192.687C346.658 193.033 346.51 193.317 346.316 193.54C346.126 193.759 345.899 193.922 345.635 194.027C345.372 194.133 345.079 194.186 344.756 194.186C344.499 194.186 344.258 194.153 344.036 194.089C343.813 194.021 343.612 193.917 343.434 193.777C343.258 193.636 343.105 193.459 342.977 193.245C342.851 193.028 342.754 192.771 342.687 192.472C342.619 192.173 342.585 191.83 342.585 191.443V190.336C342.585 189.855 342.637 189.444 342.739 189.101C342.845 188.755 342.993 188.473 343.183 188.253C343.376 188.033 343.605 187.872 343.869 187.77C344.132 187.664 344.425 187.611 344.748 187.611C345.005 187.611 345.244 187.645 345.464 187.712C345.687 187.777 345.887 187.878 346.066 188.016C346.245 188.153 346.397 188.331 346.523 188.547C346.649 188.761 346.746 189.018 346.813 189.316C346.88 189.612 346.914 189.952 346.914 190.336ZM345.644 191.61V190.165C345.644 189.933 345.631 189.731 345.604 189.558C345.581 189.385 345.544 189.239 345.495 189.119C345.445 188.996 345.383 188.896 345.31 188.82C345.237 188.744 345.153 188.688 345.06 188.653C344.966 188.618 344.862 188.6 344.748 188.6C344.604 188.6 344.477 188.628 344.365 188.684C344.257 188.739 344.165 188.829 344.088 188.952C344.012 189.072 343.954 189.233 343.913 189.435C343.875 189.634 343.855 189.877 343.855 190.165V191.61C343.855 191.842 343.867 192.045 343.891 192.221C343.917 192.397 343.955 192.548 344.005 192.674C344.058 192.797 344.119 192.898 344.189 192.977C344.263 193.053 344.346 193.109 344.44 193.144C344.537 193.179 344.642 193.197 344.756 193.197C344.897 193.197 345.021 193.169 345.13 193.113C345.241 193.055 345.335 192.964 345.411 192.841C345.49 192.715 345.549 192.551 345.587 192.349C345.625 192.146 345.644 191.9 345.644 191.61ZM352.174 190.305V191.333H348.834V190.305H352.174ZM349.226 187.699V194.098H347.907V187.699H349.226ZM353.115 187.699V194.098H351.801V187.699H353.115ZM358.92 190.854V191.848H356.437V190.854H358.92ZM366.47 190.336V191.443C366.47 191.924 366.418 192.338 366.316 192.687C366.213 193.033 366.065 193.317 365.872 193.54C365.682 193.759 365.455 193.922 365.191 194.027C364.927 194.133 364.634 194.186 364.312 194.186C364.054 194.186 363.814 194.153 363.591 194.089C363.369 194.021 363.168 193.917 362.989 193.777C362.813 193.636 362.661 193.459 362.532 193.245C362.406 193.028 362.31 192.771 362.242 192.472C362.175 192.173 362.141 191.83 362.141 191.443V190.336C362.141 189.855 362.192 189.444 362.295 189.101C362.4 188.755 362.548 188.473 362.739 188.253C362.932 188.033 363.161 187.872 363.424 187.77C363.688 187.664 363.981 187.611 364.303 187.611C364.561 187.611 364.8 187.645 365.02 187.712C365.242 187.777 365.443 187.878 365.622 188.016C365.8 188.153 365.953 188.331 366.079 188.547C366.205 188.761 366.301 189.018 366.369 189.316C366.436 189.612 366.47 189.952 366.47 190.336ZM365.2 191.61V190.165C365.2 189.933 365.187 189.731 365.16 189.558C365.137 189.385 365.1 189.239 365.05 189.119C365 188.996 364.939 188.896 364.866 188.82C364.792 188.744 364.709 188.688 364.615 188.653C364.521 188.618 364.417 188.6 364.303 188.6C364.16 188.6 364.032 188.628 363.921 188.684C363.812 188.739 363.72 188.829 363.644 188.952C363.568 189.072 363.509 189.233 363.468 189.435C363.43 189.634 363.411 189.877 363.411 190.165V191.61C363.411 191.842 363.423 192.045 363.446 192.221C363.473 192.397 363.511 192.548 363.561 192.674C363.613 192.797 363.675 192.898 363.745 192.977C363.818 193.053 363.902 193.109 363.996 193.144C364.092 193.179 364.198 193.197 364.312 193.197C364.453 193.197 364.577 193.169 364.686 193.113C364.797 193.055 364.891 192.964 364.967 192.841C365.046 192.715 365.104 192.551 365.143 192.349C365.181 192.146 365.2 191.9 365.2 191.61ZM371.708 193.109V194.098H367.331V193.254L369.401 191.035C369.609 190.803 369.773 190.6 369.893 190.424C370.013 190.245 370.1 190.085 370.152 189.945C370.208 189.801 370.236 189.665 370.236 189.536C370.236 189.343 370.204 189.177 370.139 189.04C370.075 188.899 369.979 188.791 369.854 188.714C369.73 188.638 369.578 188.6 369.396 188.6C369.203 188.6 369.036 188.647 368.896 188.741C368.758 188.834 368.652 188.965 368.579 189.132C368.509 189.299 368.474 189.488 368.474 189.699H367.204C367.204 189.318 367.294 188.969 367.476 188.653C367.658 188.333 367.914 188.08 368.245 187.893C368.576 187.702 368.969 187.607 369.423 187.607C369.871 187.607 370.249 187.68 370.557 187.827C370.867 187.97 371.102 188.178 371.26 188.451C371.421 188.72 371.501 189.042 371.501 189.417C371.501 189.628 371.468 189.835 371.4 190.037C371.333 190.236 371.236 190.436 371.11 190.635C370.987 190.831 370.838 191.03 370.662 191.232C370.486 191.435 370.292 191.644 370.078 191.861L368.966 193.109H371.708ZM376.898 190.305V191.333H373.558V190.305H376.898ZM373.949 187.699V194.098H372.631V187.699H373.949ZM377.838 187.699V194.098H376.524V187.699H377.838Z" fill="black"/>
<path d="M340.524 221.93V228.342H339.259V223.389L337.738 223.873V222.875L340.388 221.93H340.524ZM346.914 224.58V225.688C346.914 226.168 346.863 226.583 346.76 226.931C346.658 227.277 346.51 227.561 346.316 227.784C346.126 228.003 345.899 228.166 345.635 228.271C345.372 228.377 345.079 228.43 344.756 228.43C344.499 228.43 344.258 228.397 344.036 228.333C343.813 228.266 343.612 228.162 343.434 228.021C343.258 227.88 343.105 227.703 342.977 227.489C342.851 227.272 342.754 227.015 342.687 226.716C342.619 226.417 342.585 226.074 342.585 225.688V224.58C342.585 224.1 342.637 223.688 342.739 223.345C342.845 223 342.993 222.717 343.183 222.497C343.376 222.277 343.605 222.116 343.869 222.014C344.132 221.908 344.425 221.855 344.748 221.855C345.005 221.855 345.244 221.889 345.464 221.957C345.687 222.021 345.887 222.122 346.066 222.26C346.245 222.397 346.397 222.575 346.523 222.792C346.649 223.005 346.746 223.262 346.813 223.561C346.88 223.856 346.914 224.196 346.914 224.58ZM345.644 225.854V224.409C345.644 224.177 345.631 223.975 345.604 223.802C345.581 223.629 345.544 223.483 345.495 223.363C345.445 223.24 345.383 223.14 345.31 223.064C345.237 222.988 345.153 222.932 345.06 222.897C344.966 222.862 344.862 222.844 344.748 222.844C344.604 222.844 344.477 222.872 344.365 222.928C344.257 222.983 344.165 223.073 344.088 223.196C344.012 223.316 343.954 223.477 343.913 223.679C343.875 223.878 343.855 224.122 343.855 224.409V225.854C343.855 226.086 343.867 226.29 343.891 226.465C343.917 226.641 343.955 226.792 344.005 226.918C344.058 227.041 344.119 227.142 344.189 227.221C344.263 227.297 344.346 227.353 344.44 227.388C344.537 227.423 344.642 227.441 344.756 227.441C344.897 227.441 345.021 227.413 345.13 227.357C345.241 227.299 345.335 227.208 345.411 227.085C345.49 226.959 345.549 226.795 345.587 226.593C345.625 226.391 345.644 226.145 345.644 225.854ZM352.174 224.549V225.578H348.834V224.549H352.174ZM349.226 221.943V228.342H347.907V221.943H349.226ZM353.115 221.943V228.342H351.801V221.943H353.115ZM358.92 225.099V226.092H356.437V225.099H358.92ZM366.47 224.58V225.688C366.47 226.168 366.418 226.583 366.316 226.931C366.213 227.277 366.065 227.561 365.872 227.784C365.682 228.003 365.455 228.166 365.191 228.271C364.927 228.377 364.634 228.43 364.312 228.43C364.054 228.43 363.814 228.397 363.591 228.333C363.369 228.266 363.168 228.162 362.989 228.021C362.813 227.88 362.661 227.703 362.532 227.489C362.406 227.272 362.31 227.015 362.242 226.716C362.175 226.417 362.141 226.074 362.141 225.688V224.58C362.141 224.1 362.192 223.688 362.295 223.345C362.4 223 362.548 222.717 362.739 222.497C362.932 222.277 363.161 222.116 363.424 222.014C363.688 221.908 363.981 221.855 364.303 221.855C364.561 221.855 364.8 221.889 365.02 221.957C365.242 222.021 365.443 222.122 365.622 222.26C365.8 222.397 365.953 222.575 366.079 222.792C366.205 223.005 366.301 223.262 366.369 223.561C366.436 223.856 366.47 224.196 366.47 224.58ZM365.2 225.854V224.409C365.2 224.177 365.187 223.975 365.16 223.802C365.137 223.629 365.1 223.483 365.05 223.363C365 223.24 364.939 223.14 364.866 223.064C364.792 222.988 364.709 222.932 364.615 222.897C364.521 222.862 364.417 222.844 364.303 222.844C364.16 222.844 364.032 222.872 363.921 222.928C363.812 222.983 363.72 223.073 363.644 223.196C363.568 223.316 363.509 223.477 363.468 223.679C363.43 223.878 363.411 224.122 363.411 224.409V225.854C363.411 226.086 363.423 226.29 363.446 226.465C363.473 226.641 363.511 226.792 363.561 226.918C363.613 227.041 363.675 227.142 363.745 227.221C363.818 227.297 363.902 227.353 363.996 227.388C364.092 227.423 364.198 227.441 364.312 227.441C364.453 227.441 364.577 227.413 364.686 227.357C364.797 227.299 364.891 227.208 364.967 227.085C365.046 226.959 365.104 226.795 365.143 226.593C365.181 226.391 365.2 226.145 365.2 225.854ZM371.708 227.353V228.342H367.331V227.498L369.401 225.279C369.609 225.047 369.773 224.844 369.893 224.668C370.013 224.489 370.1 224.33 370.152 224.189C370.208 224.045 370.236 223.909 370.236 223.78C370.236 223.587 370.204 223.421 370.139 223.284C370.075 223.143 369.979 223.035 369.854 222.958C369.73 222.882 369.578 222.844 369.396 222.844C369.203 222.844 369.036 222.891 368.896 222.985C368.758 223.079 368.652 223.209 368.579 223.376C368.509 223.543 368.474 223.732 368.474 223.943H367.204C367.204 223.562 367.294 223.213 367.476 222.897C367.658 222.578 367.914 222.324 368.245 222.137C368.576 221.946 368.969 221.851 369.423 221.851C369.871 221.851 370.249 221.924 370.557 222.071C370.867 222.214 371.102 222.422 371.26 222.695C371.421 222.964 371.501 223.287 371.501 223.662C371.501 223.873 371.468 224.079 371.4 224.281C371.333 224.48 371.236 224.68 371.11 224.879C370.987 225.075 370.838 225.274 370.662 225.477C370.486 225.679 370.292 225.888 370.078 226.105L368.966 227.353H371.708ZM376.898 224.549V225.578H373.558V224.549H376.898ZM373.949 221.943V228.342H372.631V221.943H373.949ZM377.838 221.943V228.342H376.524V221.943H377.838Z" fill="black"/>
<path d="M338.336 261.624H338.419C338.771 261.624 339.073 261.581 339.325 261.496C339.58 261.408 339.789 261.282 339.953 261.118C340.117 260.954 340.239 260.753 340.318 260.516C340.397 260.276 340.437 260.003 340.437 259.699V258.486C340.437 258.254 340.413 258.051 340.366 257.875C340.322 257.699 340.258 257.554 340.173 257.44C340.091 257.323 339.994 257.235 339.883 257.176C339.774 257.118 339.654 257.088 339.522 257.088C339.382 257.088 339.257 257.124 339.149 257.194C339.041 257.261 338.948 257.354 338.872 257.471C338.799 257.588 338.742 257.723 338.701 257.875C338.663 258.024 338.644 258.181 338.644 258.345C338.644 258.509 338.663 258.666 338.701 258.815C338.739 258.962 338.796 259.092 338.872 259.207C338.948 259.318 339.043 259.407 339.158 259.475C339.272 259.539 339.407 259.571 339.562 259.571C339.711 259.571 339.845 259.543 339.962 259.488C340.082 259.429 340.183 259.353 340.265 259.259C340.35 259.166 340.415 259.062 340.458 258.947C340.505 258.833 340.529 258.717 340.529 258.6L340.946 258.829C340.946 259.034 340.902 259.236 340.814 259.435C340.727 259.634 340.604 259.816 340.445 259.98C340.29 260.141 340.11 260.27 339.905 260.367C339.7 260.463 339.48 260.512 339.246 260.512C338.947 260.512 338.682 260.458 338.45 260.349C338.219 260.238 338.022 260.085 337.861 259.892C337.703 259.696 337.583 259.467 337.501 259.207C337.419 258.946 337.378 258.663 337.378 258.358C337.378 258.048 337.428 257.756 337.527 257.484C337.63 257.211 337.775 256.971 337.962 256.763C338.153 256.555 338.38 256.393 338.644 256.275C338.91 256.155 339.206 256.095 339.531 256.095C339.856 256.095 340.152 256.158 340.419 256.284C340.686 256.41 340.914 256.589 341.104 256.82C341.295 257.049 341.441 257.323 341.544 257.642C341.649 257.961 341.702 258.316 341.702 258.706V259.145C341.702 259.561 341.657 259.948 341.566 260.305C341.478 260.663 341.345 260.986 341.166 261.276C340.99 261.563 340.771 261.81 340.507 262.015C340.246 262.22 339.943 262.376 339.597 262.485C339.251 262.593 338.865 262.647 338.437 262.647H338.336V261.624ZM347.006 258.793V259.822H343.667V258.793H347.006ZM344.058 256.188V262.586H342.739V256.188H344.058ZM347.947 256.188V262.586H346.633V256.188H347.947ZM353.752 259.343V260.336H351.269V259.343H353.752ZM361.372 261.597V262.586H356.995V261.742L359.065 259.523C359.273 259.292 359.437 259.088 359.557 258.912C359.677 258.733 359.764 258.574 359.816 258.433C359.872 258.29 359.9 258.153 359.9 258.024C359.9 257.831 359.868 257.666 359.803 257.528C359.739 257.387 359.644 257.279 359.518 257.203C359.395 257.126 359.242 257.088 359.061 257.088C358.867 257.088 358.7 257.135 358.56 257.229C358.422 257.323 358.316 257.453 358.243 257.62C358.173 257.787 358.138 257.976 358.138 258.187H356.868C356.868 257.806 356.958 257.458 357.14 257.141C357.322 256.822 357.578 256.568 357.909 256.381C358.24 256.19 358.633 256.095 359.087 256.095C359.535 256.095 359.913 256.168 360.221 256.315C360.531 256.458 360.766 256.667 360.924 256.939C361.085 257.208 361.166 257.531 361.166 257.906C361.166 258.117 361.132 258.323 361.064 258.525C360.997 258.725 360.9 258.924 360.774 259.123C360.651 259.319 360.502 259.519 360.326 259.721C360.15 259.923 359.956 260.132 359.742 260.349L358.63 261.597H361.372ZM363.459 258.837H364.136C364.353 258.837 364.532 258.801 364.672 258.728C364.813 258.651 364.917 258.546 364.984 258.411C365.055 258.273 365.09 258.114 365.09 257.932C365.09 257.768 365.058 257.623 364.993 257.497C364.932 257.368 364.836 257.269 364.708 257.198C364.579 257.125 364.416 257.088 364.22 257.088C364.064 257.088 363.921 257.119 363.789 257.181C363.657 257.242 363.552 257.329 363.473 257.44C363.394 257.551 363.354 257.686 363.354 257.844H362.084C362.084 257.493 362.178 257.187 362.365 256.926C362.556 256.665 362.811 256.461 363.13 256.315C363.449 256.168 363.801 256.095 364.185 256.095C364.618 256.095 364.998 256.166 365.323 256.306C365.648 256.444 365.901 256.647 366.083 256.917C366.265 257.187 366.355 257.521 366.355 257.919C366.355 258.121 366.309 258.317 366.215 258.508C366.121 258.695 365.986 258.865 365.811 259.018C365.638 259.167 365.427 259.287 365.178 259.378C364.929 259.466 364.649 259.51 364.338 259.51H363.459V258.837ZM363.459 259.8V259.145H364.338C364.687 259.145 364.993 259.185 365.257 259.264C365.521 259.343 365.742 259.457 365.92 259.606C366.099 259.753 366.234 259.927 366.325 260.129C366.416 260.329 366.461 260.55 366.461 260.793C366.461 261.092 366.404 261.358 366.29 261.593C366.175 261.824 366.014 262.021 365.806 262.182C365.601 262.343 365.361 262.466 365.085 262.551C364.81 262.633 364.51 262.674 364.185 262.674C363.915 262.674 363.65 262.637 363.389 262.564C363.131 262.488 362.897 262.375 362.686 262.226C362.478 262.073 362.311 261.883 362.185 261.654C362.062 261.423 362 261.149 362 260.833H363.271C363.271 260.997 363.312 261.143 363.394 261.272C363.476 261.401 363.588 261.502 363.732 261.575C363.878 261.648 364.041 261.685 364.22 261.685C364.422 261.685 364.595 261.648 364.738 261.575C364.885 261.499 364.996 261.394 365.072 261.259C365.151 261.121 365.191 260.961 365.191 260.78C365.191 260.545 365.148 260.358 365.063 260.217C364.979 260.074 364.857 259.968 364.699 259.901C364.541 259.833 364.353 259.8 364.136 259.8H363.459ZM371.73 258.793V259.822H368.39V258.793H371.73ZM368.781 256.188V262.586H367.463V256.188H368.781ZM372.67 256.188V262.586H371.356V256.188H372.67Z" fill="black"/>
<line x1="109" y1="54.5" x2="324" y2="54.5" stroke="#9A9A9A" stroke-opacity="0.5"/>
<line x1="109" y1="89.5" x2="324" y2="89.5" stroke="#9A9A9A"/>
<line x1="109" y1="122.5" x2="324" y2="122.5" stroke="#9A9A9A"/>
<line x1="109" y1="156.5" x2="324" y2="156.5" stroke="#9A9A9A"/>
<line x1="109" y1="190.5" x2="324" y2="190.5" stroke="#9A9A9A"/>
<line x1="109" y1="224.5" x2="324" y2="224.5" stroke="#9A9A9A"/>
<line x1="109" y1="258.5" x2="324" y2="258.5" stroke="#9A9A9A"/>
</svg>
