<svg id="Calque_1" data-name="Calque 1" xmlns="http://www.w3.org/2000/svg" viewBox="0 0 272.48 145.1"><defs><style>.cls-1{fill:#e2e2e2;}</style></defs><path class="cls-1" d="M41.07,7.48A72.47,72.47,0,0,0,0,72.76H0A72.47,72.47,0,0,0,41.07,138Z"/><path class="cls-1" d="M231.41,137.84a72.5,72.5,0,0,0,41.07-65.29h0A72.5,72.5,0,0,0,231.41,7.26Z"/><path class="cls-1" d="M158.86,0H113.62A72.55,72.55,0,0,0,41.07,72.55h0a72.55,72.55,0,0,0,72.55,72.55h45.24a72.55,72.55,0,0,0,72.55-72.55h0A72.55,72.55,0,0,0,158.86,0Zm35.27,72.55a26.78,26.78,0,0,1-26.77,26.77H105.12A26.78,26.78,0,0,1,78.35,72.55h0a26.78,26.78,0,0,1,26.77-26.77h62.24a26.78,26.78,0,0,1,26.77,26.77Z"/><circle class="cls-1" cx="164.79" cy="72.55" r="18.01"/></svg>