<svg width="428" height="320" viewBox="0 0 428 320" fill="none" xmlns="http://www.w3.org/2000/svg">
<rect width="428" height="320" fill="white"/>
<line x1="-4.59993e-08" y1="39.5" x2="426.88" y2="39.5" stroke="black" stroke-opacity="0.1"/>
<path d="M23.1768 20.6016V27H21.8584V20.6016H23.1768ZM25.7256 23.335V24.3633H22.8164V23.335H25.7256ZM26.0332 20.6016V21.6343H22.8164V20.6016H26.0332ZM31.0913 25.9717V27H27.6855V25.9717H31.0913ZM28.1162 20.6016V27H26.7979V20.6016H28.1162ZM30.6475 23.2075V24.2095H27.6855V23.2075H30.6475ZM31.0869 20.6016V21.6343H27.6855V20.6016H31.0869ZM34.1675 25.6641L35.6748 20.6016H37.1426L34.9146 27H33.9478L34.1675 25.6641ZM32.7788 20.6016L34.2817 25.6641L34.5103 27H33.5347L31.3198 20.6016H32.7788ZM37.7402 20.6016H40.1265C40.6157 20.6016 41.0361 20.6748 41.3877 20.8213C41.7422 20.9678 42.0146 21.1846 42.2051 21.4717C42.3955 21.7588 42.4907 22.1118 42.4907 22.5308C42.4907 22.8735 42.4321 23.168 42.3149 23.4141C42.2007 23.6572 42.0381 23.8608 41.8271 24.0249C41.6191 24.186 41.3745 24.3149 41.0933 24.4116L40.6758 24.6313H38.6016L38.5928 23.603H40.1353C40.3667 23.603 40.5586 23.562 40.7109 23.48C40.8633 23.3979 40.9775 23.2837 41.0537 23.1372C41.1328 22.9907 41.1724 22.8208 41.1724 22.6274C41.1724 22.4224 41.1343 22.2451 41.0581 22.0957C40.9819 21.9463 40.8662 21.832 40.7109 21.7529C40.5557 21.6738 40.3608 21.6343 40.1265 21.6343H39.0586V27H37.7402V20.6016ZM41.3174 27L39.8584 24.1479L41.2515 24.1392L42.728 26.9385V27H41.3174ZM44.9077 20.6016V27H43.5938V20.6016H44.9077ZM50.436 25.9717V27H47.0303V25.9717H50.436ZM47.4609 20.6016V27H46.1426V20.6016H47.4609ZM49.9922 23.2075V24.2095H47.0303V23.2075H49.9922ZM50.4316 20.6016V21.6343H47.0303V20.6016H50.4316ZM51.2051 20.6016H53.5913C54.0806 20.6016 54.501 20.6748 54.8525 20.8213C55.207 20.9678 55.4795 21.1846 55.6699 21.4717C55.8604 21.7588 55.9556 22.1118 55.9556 22.5308C55.9556 22.8735 55.897 23.168 55.7798 23.4141C55.6655 23.6572 55.5029 23.8608 55.292 24.0249C55.084 24.186 54.8394 24.3149 54.5581 24.4116L54.1406 24.6313H52.0664L52.0576 23.603H53.6001C53.8315 23.603 54.0234 23.562 54.1758 23.48C54.3281 23.3979 54.4424 23.2837 54.5186 23.1372C54.5977 22.9907 54.6372 22.8208 54.6372 22.6274C54.6372 22.4224 54.5991 22.2451 54.5229 22.0957C54.4468 21.9463 54.3311 21.832 54.1758 21.7529C54.0205 21.6738 53.8257 21.6343 53.5913 21.6343H52.5234V27H51.2051V20.6016ZM54.7822 27L53.3232 24.1479L54.7163 24.1392L56.1929 26.9385V27H54.7822ZM63.457 26.0112V27H59.0801V26.1562L61.1499 23.937C61.3579 23.7056 61.522 23.502 61.6421 23.3262C61.7622 23.1475 61.8486 22.9878 61.9014 22.8472C61.957 22.7036 61.9849 22.5674 61.9849 22.4385C61.9849 22.2451 61.9526 22.0796 61.8882 21.9419C61.8237 21.8013 61.7285 21.6929 61.6025 21.6167C61.4795 21.5405 61.3271 21.5024 61.1455 21.5024C60.9521 21.5024 60.7852 21.5493 60.6445 21.6431C60.5068 21.7368 60.4014 21.8672 60.3281 22.0342C60.2578 22.2012 60.2227 22.3901 60.2227 22.6011H58.9526C58.9526 22.2202 59.0435 21.8716 59.2251 21.5552C59.4067 21.2358 59.6631 20.9824 59.9941 20.7949C60.3252 20.6045 60.7178 20.5093 61.1719 20.5093C61.6201 20.5093 61.998 20.5825 62.3057 20.729C62.6162 20.8726 62.8506 21.0806 63.0088 21.353C63.1699 21.6226 63.2505 21.9448 63.2505 22.3198C63.2505 22.5308 63.2168 22.7373 63.1494 22.9395C63.082 23.1387 62.9854 23.3379 62.8594 23.5371C62.7363 23.7334 62.5869 23.9326 62.4111 24.1348C62.2354 24.3369 62.0405 24.5464 61.8267 24.7632L60.7148 26.0112H63.457ZM68.5547 23.2383V24.3457C68.5547 24.8262 68.5034 25.2407 68.4009 25.5894C68.2983 25.9351 68.1504 26.2192 67.957 26.4419C67.7666 26.6616 67.5396 26.8242 67.2759 26.9297C67.0122 27.0352 66.7192 27.0879 66.397 27.0879C66.1392 27.0879 65.8989 27.0557 65.6763 26.9912C65.4536 26.9238 65.2529 26.8198 65.0742 26.6792C64.8984 26.5386 64.7461 26.3613 64.6172 26.1475C64.4912 25.9307 64.3945 25.6729 64.3271 25.374C64.2598 25.0752 64.2261 24.7324 64.2261 24.3457V23.2383C64.2261 22.7578 64.2773 22.3462 64.3799 22.0034C64.4854 21.6577 64.6333 21.375 64.8237 21.1553C65.0171 20.9355 65.2456 20.7744 65.5093 20.6719C65.7729 20.5664 66.0659 20.5137 66.3882 20.5137C66.646 20.5137 66.8848 20.5474 67.1045 20.6147C67.3271 20.6792 67.5278 20.7803 67.7065 20.918C67.8853 21.0557 68.0376 21.2329 68.1636 21.4497C68.2896 21.6636 68.3862 21.9199 68.4536 22.2188C68.521 22.5146 68.5547 22.8545 68.5547 23.2383ZM67.2847 24.5127V23.0669C67.2847 22.8354 67.2715 22.6333 67.2451 22.4604C67.2217 22.2876 67.1851 22.1411 67.1353 22.021C67.0854 21.8979 67.0239 21.7983 66.9507 21.7222C66.8774 21.646 66.7939 21.5903 66.7002 21.5552C66.6064 21.52 66.5024 21.5024 66.3882 21.5024C66.2446 21.5024 66.1172 21.5303 66.0059 21.5859C65.8975 21.6416 65.8052 21.731 65.729 21.854C65.6528 21.9741 65.5942 22.1353 65.5532 22.3374C65.5151 22.5366 65.4961 22.7798 65.4961 23.0669V24.5127C65.4961 24.7441 65.5078 24.9478 65.5312 25.1235C65.5576 25.2993 65.5957 25.4502 65.6455 25.5762C65.6982 25.6992 65.7598 25.8003 65.8301 25.8794C65.9033 25.9556 65.9868 26.0112 66.0806 26.0464C66.1772 26.0815 66.2827 26.0991 66.397 26.0991C66.5376 26.0991 66.6621 26.0713 66.7705 26.0156C66.8818 25.957 66.9756 25.8662 67.0518 25.7432C67.1309 25.6172 67.1895 25.4531 67.2275 25.251C67.2656 25.0488 67.2847 24.8027 67.2847 24.5127ZM73.793 26.0112V27H69.416V26.1562L71.4858 23.937C71.6938 23.7056 71.8579 23.502 71.978 23.3262C72.0981 23.1475 72.1846 22.9878 72.2373 22.8472C72.293 22.7036 72.3208 22.5674 72.3208 22.4385C72.3208 22.2451 72.2886 22.0796 72.2241 21.9419C72.1597 21.8013 72.0645 21.6929 71.9385 21.6167C71.8154 21.5405 71.6631 21.5024 71.4814 21.5024C71.2881 21.5024 71.1211 21.5493 70.9805 21.6431C70.8428 21.7368 70.7373 21.8672 70.6641 22.0342C70.5938 22.2012 70.5586 22.3901 70.5586 22.6011H69.2886C69.2886 22.2202 69.3794 21.8716 69.561 21.5552C69.7427 21.2358 69.999 20.9824 70.3301 20.7949C70.6611 20.6045 71.0537 20.5093 71.5078 20.5093C71.9561 20.5093 72.334 20.5825 72.6416 20.729C72.9521 20.8726 73.1865 21.0806 73.3447 21.353C73.5059 21.6226 73.5864 21.9448 73.5864 22.3198C73.5864 22.5308 73.5527 22.7373 73.4854 22.9395C73.418 23.1387 73.3213 23.3379 73.1953 23.5371C73.0723 23.7334 72.9229 23.9326 72.7471 24.1348C72.5713 24.3369 72.3765 24.5464 72.1626 24.7632L71.0508 26.0112H73.793ZM78.9609 26.0112V27H74.584V26.1562L76.6538 23.937C76.8618 23.7056 77.0259 23.502 77.146 23.3262C77.2661 23.1475 77.3525 22.9878 77.4053 22.8472C77.4609 22.7036 77.4888 22.5674 77.4888 22.4385C77.4888 22.2451 77.4565 22.0796 77.3921 21.9419C77.3276 21.8013 77.2324 21.6929 77.1064 21.6167C76.9834 21.5405 76.8311 21.5024 76.6494 21.5024C76.4561 21.5024 76.2891 21.5493 76.1484 21.6431C76.0107 21.7368 75.9053 21.8672 75.832 22.0342C75.7617 22.2012 75.7266 22.3901 75.7266 22.6011H74.4565C74.4565 22.2202 74.5474 21.8716 74.729 21.5552C74.9106 21.2358 75.167 20.9824 75.498 20.7949C75.8291 20.6045 76.2217 20.5093 76.6758 20.5093C77.124 20.5093 77.502 20.5825 77.8096 20.729C78.1201 20.8726 78.3545 21.0806 78.5127 21.353C78.6738 21.6226 78.7544 21.9448 78.7544 22.3198C78.7544 22.5308 78.7207 22.7373 78.6533 22.9395C78.5859 23.1387 78.4893 23.3379 78.3633 23.5371C78.2402 23.7334 78.0908 23.9326 77.915 24.1348C77.7393 24.3369 77.5444 24.5464 77.3306 24.7632L76.2188 26.0112H78.9609Z" fill="black"/>
<rect x="139.492" y="19" width="1.12042" height="6" fill="black"/>
<rect x="143.414" y="21.5" width="1" height="6.72251" transform="rotate(90 143.414 21.5)" fill="black"/>
<rect x="324.922" y="14" width="89.6335" height="13" fill="black" fill-opacity="0.1"/>
<path d="M352.536 24L351.123 21.975C351.942 21.624 352.419 20.931 352.419 19.986C352.419 18.573 351.366 17.7 349.683 17.7H346.956V24H348.414V22.245H349.683H349.755L350.97 24H352.536ZM350.943 19.986C350.943 20.67 350.493 21.084 349.602 21.084H348.414V18.888H349.602C350.493 18.888 350.943 19.293 350.943 19.986ZM355.023 22.83V21.372H357.948V20.238H355.023V18.87H358.335V17.7H353.574V24H358.452V22.83H355.023ZM362.61 24.108C363.708 24.108 364.617 23.712 365.211 22.983L364.275 22.119C363.852 22.614 363.321 22.866 362.691 22.866C361.512 22.866 360.675 22.038 360.675 20.85C360.675 19.662 361.512 18.834 362.691 18.834C363.321 18.834 363.852 19.086 364.275 19.572L365.211 18.708C364.617 17.988 363.708 17.592 362.619 17.592C360.657 17.592 359.199 18.951 359.199 20.85C359.199 22.749 360.657 24.108 362.61 24.108ZM370.515 17.7V20.184H367.653V17.7H366.195V24H367.653V21.417H370.515V24H371.973V17.7H370.515ZM374.913 22.83V21.372H377.838V20.238H374.913V18.87H378.225V17.7H373.464V24H378.342V22.83H374.913ZM385.082 24L383.669 21.975C384.488 21.624 384.965 20.931 384.965 19.986C384.965 18.573 383.912 17.7 382.229 17.7H379.502V24H380.96V22.245H382.229H382.301L383.516 24H385.082ZM383.489 19.986C383.489 20.67 383.039 21.084 382.148 21.084H380.96V18.888H382.148C383.039 18.888 383.489 19.293 383.489 19.986ZM389.135 24.108C390.233 24.108 391.142 23.712 391.736 22.983L390.8 22.119C390.377 22.614 389.846 22.866 389.216 22.866C388.037 22.866 387.2 22.038 387.2 20.85C387.2 19.662 388.037 18.834 389.216 18.834C389.846 18.834 390.377 19.086 390.8 19.572L391.736 18.708C391.142 17.988 390.233 17.592 389.144 17.592C387.182 17.592 385.724 18.951 385.724 20.85C385.724 22.749 387.182 24.108 389.135 24.108ZM397.041 17.7V20.184H394.179V17.7H392.721V24H394.179V21.417H397.041V24H398.499V17.7H397.041ZM401.438 22.83V21.372H404.363V20.238H401.438V18.87H404.75V17.7H399.989V24H404.867V22.83H401.438Z" fill="black" fill-opacity="0.3"/>
<rect x="12.3232" y="54" width="52.6597" height="252" fill="#C4C4C4" fill-opacity="0.2"/>
<rect x="70.585" y="54" width="52.6597" height="252" fill="#C4C4C4" fill-opacity="0.2"/>
<rect x="128.847" y="54" width="52.6597" height="252" fill="#C4C4C4" fill-opacity="0.2"/>
<rect x="188.229" y="54" width="51.5393" height="252" fill="#C4C4C4" fill-opacity="0.2"/>
<rect x="246.491" y="54" width="52.6597" height="252" fill="#C4C4C4" fill-opacity="0.2"/>
<rect x="304.752" y="54" width="52.6597" height="252" fill="#C4C4C4" fill-opacity="0.2"/>
<rect x="363.015" y="54" width="52.6597" height="252" fill="#C4C4C4" fill-opacity="0.2"/>
<path d="M28.2139 69.9717V71H24.9927V69.9717H28.2139ZM25.4189 64.6016V71H24.1006V64.6016H25.4189ZM32.3535 64.6016H33.6675V68.8291C33.6675 69.3213 33.562 69.7358 33.3511 70.0728C33.1431 70.4097 32.8545 70.6631 32.4854 70.833C32.1191 71.0029 31.6973 71.0879 31.2197 71.0879C30.7422 71.0879 30.3174 71.0029 29.9453 70.833C29.5762 70.6631 29.2861 70.4097 29.0752 70.0728C28.8672 69.7358 28.7632 69.3213 28.7632 68.8291V64.6016H30.0815V68.8291C30.0815 69.1162 30.127 69.3506 30.2178 69.5322C30.3086 69.7139 30.439 69.8472 30.6089 69.9321C30.7817 70.0171 30.9854 70.0596 31.2197 70.0596C31.46 70.0596 31.6636 70.0171 31.8306 69.9321C32.0005 69.8472 32.1294 69.7139 32.2173 69.5322C32.3081 69.3506 32.3535 69.1162 32.3535 68.8291V64.6016ZM39.9604 64.6016V71H38.6421L36.0713 66.7109V71H34.7529V64.6016H36.0713L38.6465 68.895V64.6016H39.9604Z" fill="black"/>
<path d="M80.7241 64.6016H81.8403L83.4839 69.2993L85.1274 64.6016H86.2437L83.9321 71H83.0356L80.7241 64.6016ZM80.1221 64.6016H81.2339L81.436 69.1807V71H80.1221V64.6016ZM85.7339 64.6016H86.8501V71H85.5317V69.1807L85.7339 64.6016ZM90.6865 65.6958L88.9463 71H87.5444L89.9219 64.6016H90.814L90.6865 65.6958ZM92.1323 71L90.3877 65.6958L90.2471 64.6016H91.1479L93.5386 71H92.1323ZM92.0532 68.6182V69.6509H88.6738V68.6182H92.0532ZM94.1318 64.6016H96.5181C97.0073 64.6016 97.4277 64.6748 97.7793 64.8213C98.1338 64.9678 98.4062 65.1846 98.5967 65.4717C98.7871 65.7588 98.8823 66.1118 98.8823 66.5308C98.8823 66.8735 98.8237 67.168 98.7065 67.4141C98.5923 67.6572 98.4297 67.8608 98.2188 68.0249C98.0107 68.186 97.7661 68.3149 97.4849 68.4116L97.0674 68.6313H94.9932L94.9844 67.603H96.5269C96.7583 67.603 96.9502 67.562 97.1025 67.48C97.2549 67.3979 97.3691 67.2837 97.4453 67.1372C97.5244 66.9907 97.564 66.8208 97.564 66.6274C97.564 66.4224 97.5259 66.2451 97.4497 66.0957C97.3735 65.9463 97.2578 65.832 97.1025 65.7529C96.9473 65.6738 96.7524 65.6343 96.5181 65.6343H95.4502V71H94.1318V64.6016ZM97.709 71L96.25 68.1479L97.6431 68.1392L99.1196 70.9385V71H97.709Z" fill="black"/>
<path d="M141.226 64.6016H142.342L143.986 69.2993L145.629 64.6016H146.746L144.434 71H143.538L141.226 64.6016ZM140.624 64.6016H141.736L141.938 69.1807V71H140.624V64.6016ZM146.236 64.6016H147.352V71H146.034V69.1807L146.236 64.6016ZM152.801 69.9717V71H149.396V69.9717H152.801ZM149.826 64.6016V71H148.508V64.6016H149.826ZM152.357 67.2075V68.2095H149.396V67.2075H152.357ZM152.797 64.6016V65.6343H149.396V64.6016H152.797ZM153.57 64.6016H155.957C156.446 64.6016 156.866 64.6748 157.218 64.8213C157.572 64.9678 157.845 65.1846 158.035 65.4717C158.226 65.7588 158.321 66.1118 158.321 66.5308C158.321 66.8735 158.262 67.168 158.145 67.4141C158.031 67.6572 157.868 67.8608 157.657 68.0249C157.449 68.186 157.205 68.3149 156.923 68.4116L156.506 68.6313H154.432L154.423 67.603H155.965C156.197 67.603 156.389 67.562 156.541 67.48C156.693 67.3979 156.808 67.2837 156.884 67.1372C156.963 66.9907 157.002 66.8208 157.002 66.6274C157.002 66.4224 156.964 66.2451 156.888 66.0957C156.812 65.9463 156.696 65.832 156.541 65.7529C156.386 65.6738 156.191 65.6343 155.957 65.6343H154.889V71H153.57V64.6016ZM157.147 71L155.688 68.1479L157.082 68.1392L158.558 70.9385V71H157.147Z" fill="black"/>
<path d="M203.715 69.0356V64.6016H205.029V69.0356C205.029 69.4634 204.936 69.8311 204.748 70.1387C204.561 70.4434 204.304 70.6777 203.979 70.8418C203.657 71.0059 203.293 71.0879 202.889 71.0879C202.47 71.0879 202.1 71.0176 201.777 70.877C201.455 70.7363 201.202 70.521 201.017 70.231C200.833 69.938 200.74 69.5674 200.74 69.1191H202.063C202.063 69.3535 202.095 69.5396 202.16 69.6772C202.227 69.8149 202.322 69.9131 202.445 69.9717C202.568 70.0303 202.716 70.0596 202.889 70.0596C203.056 70.0596 203.201 70.02 203.324 69.9409C203.447 69.8618 203.542 69.7461 203.61 69.5938C203.68 69.4414 203.715 69.2554 203.715 69.0356ZM210.448 69.9717V71H207.042V69.9717H210.448ZM207.473 64.6016V71H206.154V64.6016H207.473ZM210.004 67.2075V68.2095H207.042V67.2075H210.004ZM210.443 64.6016V65.6343H207.042V64.6016H210.443ZM214.75 64.6016H216.064V68.8291C216.064 69.3213 215.958 69.7358 215.748 70.0728C215.54 70.4097 215.251 70.6631 214.882 70.833C214.516 71.0029 214.094 71.0879 213.616 71.0879C213.139 71.0879 212.714 71.0029 212.342 70.833C211.973 70.6631 211.683 70.4097 211.472 70.0728C211.264 69.7358 211.16 69.3213 211.16 68.8291V64.6016H212.478V68.8291C212.478 69.1162 212.523 69.3506 212.614 69.5322C212.705 69.7139 212.835 69.8472 213.005 69.9321C213.178 70.0171 213.382 70.0596 213.616 70.0596C213.856 70.0596 214.06 70.0171 214.227 69.9321C214.397 69.8472 214.526 69.7139 214.614 69.5322C214.705 69.3506 214.75 69.1162 214.75 68.8291V64.6016Z" fill="black"/>
<path d="M261.695 69.6641L263.202 64.6016H264.67L262.442 71H261.475L261.695 69.6641ZM260.306 64.6016L261.809 69.6641L262.038 71H261.062L258.847 64.6016H260.306ZM269.561 69.9717V71H266.155V69.9717H269.561ZM266.586 64.6016V71H265.268V64.6016H266.586ZM269.117 67.2075V68.2095H266.155V67.2075H269.117ZM269.557 64.6016V65.6343H266.155V64.6016H269.557ZM275.538 64.6016V71H274.219L271.648 66.7109V71H270.33V64.6016H271.648L274.224 68.895V64.6016H275.538Z" fill="black"/>
<path d="M318.74 69.3257C318.74 69.2114 318.723 69.1089 318.688 69.0181C318.655 68.9243 318.594 68.8394 318.503 68.7632C318.412 68.6841 318.285 68.6064 318.121 68.5303C317.957 68.4541 317.744 68.375 317.483 68.293C317.193 68.1992 316.918 68.0938 316.657 67.9766C316.399 67.8594 316.171 67.7231 315.972 67.5679C315.775 67.4097 315.62 67.2266 315.506 67.0186C315.395 66.8105 315.339 66.5688 315.339 66.2935C315.339 66.0269 315.397 65.7852 315.515 65.5684C315.632 65.3486 315.796 65.1611 316.007 65.0059C316.218 64.8477 316.467 64.7261 316.754 64.6411C317.044 64.5562 317.362 64.5137 317.708 64.5137C318.179 64.5137 318.591 64.5986 318.942 64.7686C319.294 64.9385 319.566 65.1714 319.76 65.4673C319.956 65.7632 320.054 66.1016 320.054 66.4824H318.745C318.745 66.2949 318.705 66.1309 318.626 65.9902C318.55 65.8467 318.433 65.7339 318.274 65.6519C318.119 65.5698 317.923 65.5288 317.686 65.5288C317.457 65.5288 317.267 65.564 317.114 65.6343C316.962 65.7017 316.848 65.7939 316.771 65.9111C316.695 66.0254 316.657 66.1543 316.657 66.2979C316.657 66.4062 316.684 66.5044 316.736 66.5923C316.792 66.6802 316.874 66.7622 316.982 66.8384C317.091 66.9146 317.224 66.9863 317.382 67.0537C317.541 67.1211 317.724 67.187 317.932 67.2515C318.28 67.3569 318.586 67.4756 318.85 67.6074C319.117 67.7393 319.339 67.8872 319.518 68.0513C319.697 68.2153 319.832 68.4014 319.922 68.6094C320.013 68.8174 320.059 69.0532 320.059 69.3169C320.059 69.5952 320.004 69.8442 319.896 70.064C319.788 70.2837 319.631 70.4697 319.426 70.6221C319.221 70.7744 318.976 70.8901 318.692 70.9692C318.408 71.0483 318.09 71.0879 317.738 71.0879C317.422 71.0879 317.11 71.0469 316.802 70.9648C316.495 70.8799 316.215 70.7524 315.963 70.5825C315.714 70.4126 315.515 70.1958 315.365 69.9321C315.216 69.6685 315.141 69.3564 315.141 68.9961H316.464C316.464 69.1953 316.495 69.3638 316.556 69.5015C316.618 69.6392 316.704 69.7505 316.815 69.8354C316.93 69.9204 317.064 69.9819 317.22 70.02C317.378 70.0581 317.551 70.0771 317.738 70.0771C317.967 70.0771 318.154 70.0449 318.301 69.9805C318.45 69.916 318.56 69.8267 318.63 69.7124C318.704 69.5981 318.74 69.4692 318.74 69.3257ZM323.557 65.6958L321.816 71H320.415L322.792 64.6016H323.684L323.557 65.6958ZM325.002 71L323.258 65.6958L323.117 64.6016H324.018L326.409 71H325.002ZM324.923 68.6182V69.6509H321.544V68.6182H324.923ZM327.604 64.6016H328.72L330.364 69.2993L332.007 64.6016H333.124L330.812 71H329.916L327.604 64.6016ZM327.002 64.6016H328.114L328.316 69.1807V71H327.002V64.6016ZM332.614 64.6016H333.73V71H332.412V69.1807L332.614 64.6016Z" fill="black"/>
<path d="M374.515 71H373.122L373.131 69.9717H374.515C374.861 69.9717 375.152 69.894 375.39 69.7388C375.627 69.5806 375.806 69.3506 375.926 69.0488C376.049 68.7471 376.11 68.3823 376.11 67.9546V67.6426C376.11 67.3145 376.075 67.0259 376.005 66.7769C375.938 66.5278 375.836 66.3184 375.702 66.1484C375.567 65.9785 375.401 65.8511 375.205 65.7661C375.009 65.6782 374.783 65.6343 374.528 65.6343H373.096V64.6016H374.528C374.956 64.6016 375.347 64.6748 375.702 64.8213C376.059 64.9648 376.368 65.1714 376.629 65.4409C376.89 65.7104 377.09 66.0327 377.231 66.4077C377.375 66.7798 377.446 67.1943 377.446 67.6514V67.9546C377.446 68.4087 377.375 68.8232 377.231 69.1982C377.09 69.5732 376.89 69.8955 376.629 70.165C376.371 70.4316 376.062 70.6382 375.702 70.7847C375.344 70.9282 374.949 71 374.515 71ZM373.869 64.6016V71H372.551V64.6016H373.869ZM379.806 64.6016V71H378.492V64.6016H379.806ZM381.643 64.6016H382.759L384.403 69.2993L386.046 64.6016H387.163L384.851 71H383.955L381.643 64.6016ZM381.041 64.6016H382.153L382.355 69.1807V71H381.041V64.6016ZM386.653 64.6016H387.769V71H386.451V69.1807L386.653 64.6016Z" fill="black"/>
<path d="M128.848 265H181.507V306H128.848V265Z" fill="#FFEC00" fill-opacity="0.5"/>
<path d="M128.848 79H181.507V117H128.848V79Z" fill="#36F732" fill-opacity="0.5"/>
<g clip-path="url(#clip0_207_211)">
<path d="M162.88 92.625H159.846V91.6094C159.846 91.2717 159.534 91 159.146 91H151.209C150.821 91 150.509 91.2717 150.509 91.6094V92.625H147.475C147.087 92.625 146.774 92.8967 146.774 93.2344V94.6562C146.774 95.5627 147.431 96.4945 148.581 97.2131C149.5 97.7895 150.617 98.1551 151.79 98.2719C152.706 99.5947 153.777 100.141 153.777 100.141V101.969H152.377C151.347 101.969 150.509 102.494 150.509 103.391V103.695C150.509 103.863 150.667 104 150.859 104H159.496C159.688 104 159.846 103.863 159.846 103.695V103.391C159.846 102.494 159.009 101.969 157.979 101.969H156.578V100.141C156.578 100.141 157.649 99.5947 158.565 98.2719C159.741 98.1551 160.858 97.7895 161.775 97.2131C162.921 96.4945 163.581 95.5627 163.581 94.6562V93.2344C163.581 92.8967 163.268 92.625 162.88 92.625ZM149.672 95.8953C148.96 95.4484 148.642 94.9508 148.642 94.6562V94.25H150.515C150.544 95.0777 150.684 95.8039 150.888 96.4387C150.448 96.3066 150.036 96.1238 149.672 95.8953V95.8953ZM161.713 94.6562C161.713 95.065 161.197 95.5729 160.683 95.8953C160.319 96.1238 159.904 96.3066 159.464 96.4387C159.668 95.8039 159.808 95.0777 159.837 94.25H161.713V94.6562Z" fill="black"/>
</g>
<rect x="12.3232" y="120" width="52.6597" height="44" fill="#36F732" fill-opacity="0.5"/>
<g clip-path="url(#clip1_207_211)">
<path d="M46.356 137.625H43.3216V136.609C43.3216 136.272 43.0094 136 42.6213 136H34.685C34.2969 136 33.9847 136.272 33.9847 136.609V137.625H30.9503C30.5622 137.625 30.25 137.897 30.25 138.234V139.656C30.25 140.563 30.9065 141.495 32.0561 142.213C32.9752 142.789 34.0927 143.155 35.2656 143.272C36.1818 144.595 37.2526 145.141 37.2526 145.141V146.969H35.8521C34.8221 146.969 33.9847 147.494 33.9847 148.391V148.695C33.9847 148.863 34.1423 149 34.3349 149H42.9714C43.164 149 43.3216 148.863 43.3216 148.695V148.391C43.3216 147.494 42.4842 146.969 41.4542 146.969H40.0537V145.141C40.0537 145.141 41.1245 144.595 42.0407 143.272C43.2165 143.155 44.334 142.789 45.2502 142.213C46.3969 141.495 47.0563 140.563 47.0563 139.656V138.234C47.0563 137.897 46.7441 137.625 46.356 137.625ZM33.1473 140.895C32.4354 140.448 32.1174 139.951 32.1174 139.656V139.25H33.9906C34.0197 140.078 34.1598 140.804 34.364 141.439C33.9235 141.307 33.5121 141.124 33.1473 140.895V140.895ZM45.1889 139.656C45.1889 140.065 44.6725 140.573 44.1589 140.895C43.7942 141.124 43.3799 141.307 42.9393 141.439C43.1436 140.804 43.2836 140.078 43.3128 139.25H45.1889V139.656Z" fill="black"/>
</g>
<path d="M188.229 79H239.769V117H188.229V79Z" fill="#36F732" fill-opacity="0.5"/>
<g clip-path="url(#clip2_207_211)">
<path d="M221.142 92.625H218.108V91.6094C218.108 91.2717 217.795 91 217.407 91H209.471C209.083 91 208.771 91.2717 208.771 91.6094V92.625H205.736C205.348 92.625 205.036 92.8967 205.036 93.2344V94.6562C205.036 95.5627 205.693 96.4945 206.842 97.2131C207.761 97.7895 208.879 98.1551 210.052 98.2719C210.968 99.5947 212.039 100.141 212.039 100.141V101.969H210.638C209.608 101.969 208.771 102.494 208.771 103.391V103.695C208.771 103.863 208.928 104 209.121 104H217.758C217.95 104 218.108 103.863 218.108 103.695V103.391C218.108 102.494 217.27 101.969 216.24 101.969H214.84V100.141C214.84 100.141 215.911 99.5947 216.827 98.2719C218.003 98.1551 219.12 97.7895 220.036 97.2131C221.183 96.4945 221.842 95.5627 221.842 94.6562V93.2344C221.842 92.8967 221.53 92.625 221.142 92.625ZM207.933 95.8953C207.222 95.4484 206.903 94.9508 206.903 94.6562V94.25H208.777C208.806 95.0777 208.946 95.8039 209.15 96.4387C208.71 96.3066 208.298 96.1238 207.933 95.8953V95.8953ZM219.975 94.6562C219.975 95.065 219.459 95.5729 218.945 95.8953C218.58 96.1238 218.166 96.3066 217.725 96.4387C217.93 95.8039 218.07 95.0777 218.099 94.25H219.975V94.6562Z" fill="black"/>
</g>
<path d="M246.491 171H299.151V212H246.491V171Z" fill="#5BD4FB" fill-opacity="0.5"/>
<path d="M273.382 196C274.412 196 275.432 195.819 276.383 195.467C277.335 195.115 278.2 194.6 278.928 193.95C279.656 193.3 280.234 192.528 280.628 191.679C281.022 190.83 281.225 189.919 281.225 189C281.225 188.081 281.022 187.17 280.628 186.321C280.234 185.472 279.656 184.7 278.928 184.05C278.2 183.4 277.335 182.885 276.383 182.533C275.432 182.181 274.412 182 273.382 182C271.302 182 269.307 182.737 267.836 184.05C266.365 185.363 265.539 187.143 265.539 189C265.539 190.857 266.365 192.637 267.836 193.95C269.307 195.263 271.302 196 273.382 196V196Z" stroke="black" stroke-width="1.5" stroke-linecap="round" stroke-linejoin="round"/>
<path d="M273.382 196V198" stroke="black" stroke-width="1.5" stroke-linecap="round" stroke-linejoin="round"/>
<path d="M265.539 189H263.298" stroke="black" stroke-width="1.5" stroke-linecap="round" stroke-linejoin="round"/>
<path d="M273.382 182V180" stroke="black" stroke-width="1.5" stroke-linecap="round" stroke-linejoin="round"/>
<path d="M281.225 189H283.465" stroke="black" stroke-width="1.5" stroke-linecap="round" stroke-linejoin="round"/>
<path d="M59.4458 108.7V109.87H60.7058V115H62.1638V108.7H59.4458Z" fill="black"/>
<path d="M116.631 113.812L118.08 112.444C118.962 111.625 119.133 111.067 119.133 110.455C119.133 109.312 118.197 108.592 116.793 108.592C115.659 108.592 114.777 109.051 114.291 109.762L115.353 110.446C115.659 110.023 116.118 109.816 116.658 109.816C117.324 109.816 117.666 110.104 117.666 110.599C117.666 110.905 117.567 111.229 117.009 111.76L114.579 114.055V115H119.34V113.812H116.631Z" fill="black"/>
<path d="M175.839 111.265L177.261 109.645V108.7H172.851V109.87H175.533L174.237 111.337V112.3H174.903C175.731 112.3 176.082 112.597 176.082 113.074C176.082 113.587 175.632 113.884 174.903 113.884C174.246 113.884 173.58 113.677 173.103 113.317L172.536 114.433C173.148 114.865 174.057 115.108 174.939 115.108C176.73 115.108 177.549 114.136 177.549 113.074C177.549 112.147 176.973 111.445 175.839 111.265Z" fill="black" fill-opacity="0.3"/>
<path d="M234.686 112.489H233.66V111.31H232.283V112.489H230.591L233.345 108.7H231.815L228.845 112.696V113.677H232.238V115H233.66V113.677H234.686V112.489Z" fill="black" fill-opacity="0.3"/>
<path d="M290.458 111.067H289.945L290.044 109.87H292.672V108.7H288.829L288.505 112.246H290.116C291.259 112.246 291.583 112.57 291.583 113.065C291.583 113.578 291.133 113.884 290.404 113.884C289.747 113.884 289.09 113.677 288.613 113.317L288.037 114.433C288.649 114.865 289.567 115.108 290.44 115.108C292.24 115.108 293.059 114.136 293.059 113.02C293.059 111.904 292.321 111.067 290.458 111.067Z" fill="black"/>
<path d="M349.594 111.049C348.937 111.049 348.406 111.238 348.037 111.607C348.082 110.401 348.757 109.78 349.81 109.78C350.233 109.78 350.638 109.861 350.989 110.095L351.529 109.024C351.088 108.745 350.44 108.592 349.774 108.592C347.875 108.592 346.561 109.807 346.561 111.985C346.561 114.019 347.641 115.108 349.378 115.108C350.71 115.108 351.763 114.298 351.763 113.011C351.763 111.823 350.809 111.049 349.594 111.049ZM349.297 114.019C348.595 114.019 348.19 113.623 348.19 113.083C348.19 112.534 348.64 112.138 349.279 112.138C349.927 112.138 350.35 112.507 350.35 113.083C350.35 113.659 349.918 114.019 349.297 114.019Z" fill="black"/>
<path d="M405.827 108.7V110.914H407.123V109.888H409.211L406.952 115H408.536L410.876 109.645V108.7H405.827Z" fill="black" fill-opacity="0.3"/>
<ellipse cx="56.0216" cy="156" rx="7.84293" ry="7" fill="#00C5FD"/>
<path d="M57.3222 155.688C57.7902 155.4 58.0602 154.959 58.0602 154.392C58.0602 153.285 57.0702 152.592 55.6212 152.592C54.1902 152.592 53.2002 153.285 53.2002 154.392C53.2002 154.959 53.4612 155.4 53.9292 155.688C53.3262 155.994 52.9752 156.498 52.9752 157.173C52.9752 158.361 54.0282 159.108 55.6212 159.108C57.2232 159.108 58.2852 158.361 58.2852 157.173C58.2852 156.498 57.9342 155.994 57.3222 155.688ZM55.6212 153.663C56.2152 153.663 56.6112 153.96 56.6112 154.455C56.6112 154.932 56.2242 155.229 55.6212 155.229C55.0272 155.229 54.6492 154.932 54.6492 154.455C54.6492 153.96 55.0362 153.663 55.6212 153.663ZM55.6212 158.037C54.9012 158.037 54.4512 157.686 54.4512 157.128C54.4512 156.57 54.9012 156.228 55.6212 156.228C56.3502 156.228 56.8092 156.57 56.8092 157.128C56.8092 157.686 56.3502 158.037 55.6212 158.037Z" fill="white"/>
<path d="M117.968 154.592C116.636 154.592 115.583 155.402 115.583 156.689C115.583 157.877 116.537 158.651 117.752 158.651C118.409 158.651 118.949 158.453 119.318 158.084C119.273 159.299 118.589 159.92 117.545 159.92C117.113 159.92 116.708 159.839 116.366 159.605L115.826 160.676C116.267 160.955 116.906 161.108 117.572 161.108C119.48 161.108 120.785 159.893 120.785 157.715C120.785 155.681 119.714 154.592 117.968 154.592ZM118.076 157.562C117.428 157.562 117.005 157.193 117.005 156.617C117.005 156.041 117.437 155.681 118.058 155.681C118.751 155.681 119.156 156.077 119.156 156.617C119.156 157.166 118.715 157.562 118.076 157.562Z" fill="black"/>
<path d="M170.367 154.7V155.87H171.627V161H173.085V154.7H170.367ZM176.879 161.108C178.436 161.108 179.579 159.929 179.579 157.85C179.579 155.771 178.436 154.592 176.879 154.592C175.331 154.592 174.179 155.771 174.179 157.85C174.179 159.929 175.331 161.108 176.879 161.108ZM176.879 159.875C176.159 159.875 175.655 159.281 175.655 157.85C175.655 156.419 176.159 155.825 176.879 155.825C177.608 155.825 178.112 156.419 178.112 157.85C178.112 159.281 177.608 159.875 176.879 159.875Z" fill="black"/>
<path d="M230.87 154.7V155.87H232.13V161H233.588V154.7H230.87ZM234.394 154.7V155.87H235.654V161H237.112V154.7H234.394Z" fill="black" fill-opacity="0.3"/>
<path d="M288.01 154.7V155.87H289.27V161H290.728V154.7H288.01ZM293.821 159.812L295.27 158.444C296.152 157.625 296.323 157.067 296.323 156.455C296.323 155.312 295.387 154.592 293.983 154.592C292.849 154.592 291.967 155.051 291.481 155.762L292.543 156.446C292.849 156.023 293.308 155.816 293.848 155.816C294.514 155.816 294.856 156.104 294.856 156.599C294.856 156.905 294.757 157.229 294.199 157.76L291.769 160.055V161H296.53V159.812H293.821Z" fill="black" fill-opacity="0.3"/>
<path d="M346.273 154.7V155.87H347.533V161H348.991V154.7H346.273ZM353.028 157.265L354.45 155.645V154.7H350.04V155.87H352.722L351.426 157.337V158.3H352.092C352.92 158.3 353.271 158.597 353.271 159.074C353.271 159.587 352.821 159.884 352.092 159.884C351.435 159.884 350.769 159.677 350.292 159.317L349.725 160.433C350.337 160.865 351.246 161.108 352.128 161.108C353.919 161.108 354.738 160.136 354.738 159.074C354.738 158.147 354.162 157.445 353.028 157.265Z" fill="black" fill-opacity="0.3"/>
<path d="M403.415 154.7V155.87H404.675V161H406.133V154.7H403.415ZM412.996 158.489H411.97V157.31H410.593V158.489H408.901L411.655 154.7H410.125L407.155 158.696V159.677H410.548V161H411.97V159.677H412.996V158.489Z" fill="black"/>
<path d="M54.9644 200.7V201.87H56.2244V207H57.6824V200.7H54.9644ZM60.9368 203.067H60.4238L60.5228 201.87H63.1508V200.7H59.3078L58.9838 204.246H60.5948C61.7378 204.246 62.0618 204.57 62.0618 205.065C62.0618 205.578 61.6118 205.884 60.8828 205.884C60.2258 205.884 59.5688 205.677 59.0918 205.317L58.5158 206.433C59.1278 206.865 60.0458 207.108 60.9188 207.108C62.7188 207.108 63.5378 206.136 63.5378 205.02C63.5378 203.904 62.7998 203.067 60.9368 203.067Z" fill="black"/>
<path d="M113.225 200.7V201.87H114.485V207H115.943V200.7H113.225ZM120.071 203.049C119.414 203.049 118.883 203.238 118.514 203.607C118.559 202.401 119.234 201.78 120.287 201.78C120.71 201.78 121.115 201.861 121.466 202.095L122.006 201.024C121.565 200.745 120.917 200.592 120.251 200.592C118.352 200.592 117.038 201.807 117.038 203.985C117.038 206.019 118.118 207.108 119.855 207.108C121.187 207.108 122.24 206.298 122.24 205.011C122.24 203.823 121.286 203.049 120.071 203.049ZM119.774 206.019C119.072 206.019 118.667 205.623 118.667 205.083C118.667 204.534 119.117 204.138 119.756 204.138C120.404 204.138 120.827 204.507 120.827 205.083C120.827 205.659 120.395 206.019 119.774 206.019Z" fill="black" fill-opacity="0.3"/>
<path d="M171.487 200.7V201.87H172.747V207H174.205V200.7H171.487ZM175.182 200.7V202.914H176.478V201.888H178.566L176.307 207H177.891L180.231 201.645V200.7H175.182Z" fill="black"/>
<path d="M228.629 200.7V201.87H229.889V207H231.347V200.7H228.629ZM236.753 203.688C237.221 203.4 237.491 202.959 237.491 202.392C237.491 201.285 236.501 200.592 235.052 200.592C233.621 200.592 232.631 201.285 232.631 202.392C232.631 202.959 232.892 203.4 233.36 203.688C232.757 203.994 232.406 204.498 232.406 205.173C232.406 206.361 233.459 207.108 235.052 207.108C236.654 207.108 237.716 206.361 237.716 205.173C237.716 204.498 237.365 203.994 236.753 203.688ZM235.052 201.663C235.646 201.663 236.042 201.96 236.042 202.455C236.042 202.932 235.655 203.229 235.052 203.229C234.458 203.229 234.08 202.932 234.08 202.455C234.08 201.96 234.467 201.663 235.052 201.663ZM235.052 206.037C234.332 206.037 233.882 205.686 233.882 205.128C233.882 204.57 234.332 204.228 235.052 204.228C235.781 204.228 236.24 204.57 236.24 205.128C236.24 205.686 235.781 206.037 235.052 206.037Z" fill="black" fill-opacity="0.3"/>
<path d="M288.01 200.7V201.87H289.27V207H290.728V200.7H288.01ZM294.037 200.592C292.705 200.592 291.652 201.402 291.652 202.689C291.652 203.877 292.606 204.651 293.821 204.651C294.478 204.651 295.018 204.453 295.387 204.084C295.342 205.299 294.658 205.92 293.614 205.92C293.182 205.92 292.777 205.839 292.435 205.605L291.895 206.676C292.336 206.955 292.975 207.108 293.641 207.108C295.549 207.108 296.854 205.893 296.854 203.715C296.854 201.681 295.783 200.592 294.037 200.592ZM294.145 203.562C293.497 203.562 293.074 203.193 293.074 202.617C293.074 202.041 293.506 201.681 294.127 201.681C294.82 201.681 295.225 202.077 295.225 202.617C295.225 203.166 294.784 203.562 294.145 203.562Z" fill="black" fill-opacity="0.3"/>
<path d="M346.318 205.812L347.767 204.444C348.649 203.625 348.82 203.067 348.82 202.455C348.82 201.312 347.884 200.592 346.48 200.592C345.346 200.592 344.464 201.051 343.978 201.762L345.04 202.446C345.346 202.023 345.805 201.816 346.345 201.816C347.011 201.816 347.353 202.104 347.353 202.599C347.353 202.905 347.254 203.229 346.696 203.76L344.266 206.055V207H349.027V205.812H346.318ZM352.311 207.108C353.868 207.108 355.011 205.929 355.011 203.85C355.011 201.771 353.868 200.592 352.311 200.592C350.763 200.592 349.611 201.771 349.611 203.85C349.611 205.929 350.763 207.108 352.311 207.108ZM352.311 205.875C351.591 205.875 351.087 205.281 351.087 203.85C351.087 202.419 351.591 201.825 352.311 201.825C353.04 201.825 353.544 202.419 353.544 203.85C353.544 205.281 353.04 205.875 352.311 205.875Z" fill="black"/>
<path d="M407.942 205.812L409.391 204.444C410.273 203.625 410.444 203.067 410.444 202.455C410.444 201.312 409.508 200.592 408.104 200.592C406.97 200.592 406.088 201.051 405.602 201.762L406.664 202.446C406.97 202.023 407.429 201.816 407.969 201.816C408.635 201.816 408.977 202.104 408.977 202.599C408.977 202.905 408.878 203.229 408.32 203.76L405.89 206.055V207H410.651V205.812H407.942ZM410.964 200.7V201.87H412.224V207H413.682V200.7H410.964Z" fill="black"/>
<path d="M53.889 251.812L55.338 250.444C56.22 249.625 56.391 249.067 56.391 248.455C56.391 247.312 55.455 246.592 54.051 246.592C52.917 246.592 52.035 247.051 51.549 247.762L52.611 248.446C52.917 248.023 53.376 247.816 53.916 247.816C54.582 247.816 54.924 248.104 54.924 248.599C54.924 248.905 54.825 249.229 54.267 249.76L51.837 252.055V253H56.598V251.812H53.889ZM59.1976 251.812L60.6466 250.444C61.5286 249.625 61.6996 249.067 61.6996 248.455C61.6996 247.312 60.7636 246.592 59.3596 246.592C58.2256 246.592 57.3436 247.051 56.8576 247.762L57.9196 248.446C58.2256 248.023 58.6846 247.816 59.2246 247.816C59.8906 247.816 60.2326 248.104 60.2326 248.599C60.2326 248.905 60.1336 249.229 59.5756 249.76L57.1456 252.055V253H61.9066V251.812H59.1976Z" fill="black" fill-opacity="0.3"/>
<path d="M114.391 251.812L115.84 250.444C116.722 249.625 116.893 249.067 116.893 248.455C116.893 247.312 115.957 246.592 114.553 246.592C113.419 246.592 112.537 247.051 112.051 247.762L113.113 248.446C113.419 248.023 113.878 247.816 114.418 247.816C115.084 247.816 115.426 248.104 115.426 248.599C115.426 248.905 115.327 249.229 114.769 249.76L112.339 252.055V253H117.1V251.812H114.391ZM120.645 249.265L122.067 247.645V246.7H117.657V247.87H120.339L119.043 249.337V250.3H119.709C120.537 250.3 120.888 250.597 120.888 251.074C120.888 251.587 120.438 251.884 119.709 251.884C119.052 251.884 118.386 251.677 117.909 251.317L117.342 252.433C117.954 252.865 118.863 253.108 119.745 253.108C121.536 253.108 122.355 252.136 122.355 251.074C122.355 250.147 121.779 249.445 120.645 249.265Z" fill="black"/>
<path d="M170.412 251.812L171.861 250.444C172.743 249.625 172.914 249.067 172.914 248.455C172.914 247.312 171.978 246.592 170.574 246.592C169.44 246.592 168.558 247.051 168.072 247.762L169.134 248.446C169.44 248.023 169.899 247.816 170.438 247.816C171.105 247.816 171.447 248.104 171.447 248.599C171.447 248.905 171.348 249.229 170.79 249.76L168.359 252.055V253H173.121V251.812H170.412ZM179.403 250.489H178.377V249.31H177V250.489H175.308L178.062 246.7H176.532L173.562 250.696V251.677H176.955V253H178.377V251.677H179.403V250.489Z" fill="black" fill-opacity="0.3"/>
<path d="M229.794 251.812L231.243 250.444C232.125 249.625 232.296 249.067 232.296 248.455C232.296 247.312 231.36 246.592 229.956 246.592C228.822 246.592 227.94 247.051 227.454 247.762L228.516 248.446C228.822 248.023 229.281 247.816 229.821 247.816C230.487 247.816 230.829 248.104 230.829 248.599C230.829 248.905 230.73 249.229 230.172 249.76L227.742 252.055V253H232.503V251.812H229.794ZM235.265 249.067H234.752L234.851 247.87H237.479V246.7H233.636L233.312 250.246H234.923C236.066 250.246 236.39 250.57 236.39 251.065C236.39 251.578 235.94 251.884 235.211 251.884C234.554 251.884 233.897 251.677 233.42 251.317L232.844 252.433C233.456 252.865 234.374 253.108 235.247 253.108C237.047 253.108 237.866 252.136 237.866 251.02C237.866 249.904 237.128 249.067 235.265 249.067Z" fill="black"/>
<path d="M288.056 251.812L289.505 250.444C290.387 249.625 290.558 249.067 290.558 248.455C290.558 247.312 289.622 246.592 288.218 246.592C287.084 246.592 286.202 247.051 285.716 247.762L286.778 248.446C287.084 248.023 287.543 247.816 288.083 247.816C288.749 247.816 289.091 248.104 289.091 248.599C289.091 248.905 288.992 249.229 288.434 249.76L286.004 252.055V253H290.765V251.812H288.056ZM294.382 249.049C293.725 249.049 293.194 249.238 292.825 249.607C292.87 248.401 293.545 247.78 294.598 247.78C295.021 247.78 295.426 247.861 295.777 248.095L296.317 247.024C295.876 246.745 295.228 246.592 294.562 246.592C292.663 246.592 291.349 247.807 291.349 249.985C291.349 252.019 292.429 253.108 294.166 253.108C295.498 253.108 296.551 252.298 296.551 251.011C296.551 249.823 295.597 249.049 294.382 249.049ZM294.085 252.019C293.383 252.019 292.978 251.623 292.978 251.083C292.978 250.534 293.428 250.138 294.067 250.138C294.715 250.138 295.138 250.507 295.138 251.083C295.138 251.659 294.706 252.019 294.085 252.019Z" fill="black"/>
<path d="M346.318 251.812L347.767 250.444C348.649 249.625 348.82 249.067 348.82 248.455C348.82 247.312 347.884 246.592 346.48 246.592C345.346 246.592 344.464 247.051 343.978 247.762L345.04 248.446C345.346 248.023 345.805 247.816 346.345 247.816C347.011 247.816 347.353 248.104 347.353 248.599C347.353 248.905 347.254 249.229 346.696 249.76L344.266 252.055V253H349.027V251.812H346.318ZM349.494 246.7V248.914H350.79V247.888H352.878L350.619 253H352.203L354.543 247.645V246.7H349.494Z" fill="black"/>
<path d="M404.579 251.812L406.028 250.444C406.91 249.625 407.081 249.067 407.081 248.455C407.081 247.312 406.145 246.592 404.741 246.592C403.607 246.592 402.725 247.051 402.239 247.762L403.301 248.446C403.607 248.023 404.066 247.816 404.606 247.816C405.272 247.816 405.614 248.104 405.614 248.599C405.614 248.905 405.515 249.229 404.957 249.76L402.527 252.055V253H407.288V251.812H404.579ZM412.201 249.688C412.669 249.4 412.939 248.959 412.939 248.392C412.939 247.285 411.949 246.592 410.5 246.592C409.069 246.592 408.079 247.285 408.079 248.392C408.079 248.959 408.34 249.4 408.808 249.688C408.205 249.994 407.854 250.498 407.854 251.173C407.854 252.361 408.907 253.108 410.5 253.108C412.102 253.108 413.164 252.361 413.164 251.173C413.164 250.498 412.813 249.994 412.201 249.688ZM410.5 247.663C411.094 247.663 411.49 247.96 411.49 248.455C411.49 248.932 411.103 249.229 410.5 249.229C409.906 249.229 409.528 248.932 409.528 248.455C409.528 247.96 409.915 247.663 410.5 247.663ZM410.5 252.037C409.78 252.037 409.33 251.686 409.33 251.128C409.33 250.57 409.78 250.228 410.5 250.228C411.229 250.228 411.688 250.57 411.688 251.128C411.688 251.686 411.229 252.037 410.5 252.037Z" fill="black"/>
<path d="M53.889 296.812L55.338 295.444C56.22 294.625 56.391 294.067 56.391 293.455C56.391 292.312 55.455 291.592 54.051 291.592C52.917 291.592 52.035 292.051 51.549 292.762L52.611 293.446C52.917 293.023 53.376 292.816 53.916 292.816C54.582 292.816 54.924 293.104 54.924 293.599C54.924 293.905 54.825 294.229 54.267 294.76L51.837 297.055V298H56.598V296.812H53.889ZM59.4136 291.592C58.0816 291.592 57.0286 292.402 57.0286 293.689C57.0286 294.877 57.9826 295.651 59.1976 295.651C59.8546 295.651 60.3946 295.453 60.7636 295.084C60.7186 296.299 60.0346 296.92 58.9906 296.92C58.5586 296.92 58.1536 296.839 57.8116 296.605L57.2716 297.676C57.7126 297.955 58.3516 298.108 59.0176 298.108C60.9256 298.108 62.2306 296.893 62.2306 294.715C62.2306 292.681 61.1596 291.592 59.4136 291.592ZM59.5216 294.562C58.8736 294.562 58.4506 294.193 58.4506 293.617C58.4506 293.041 58.8826 292.681 59.5036 292.681C60.1966 292.681 60.6016 293.077 60.6016 293.617C60.6016 294.166 60.1606 294.562 59.5216 294.562Z" fill="black"/>
<path d="M113.095 294.265L114.517 292.645V291.7H110.107V292.87H112.789L111.493 294.337V295.3H112.159C112.987 295.3 113.338 295.597 113.338 296.074C113.338 296.587 112.888 296.884 112.159 296.884C111.502 296.884 110.836 296.677 110.359 296.317L109.792 297.433C110.404 297.865 111.313 298.108 112.195 298.108C113.986 298.108 114.805 297.136 114.805 296.074C114.805 295.147 114.229 294.445 113.095 294.265ZM118.178 298.108C119.735 298.108 120.878 296.929 120.878 294.85C120.878 292.771 119.735 291.592 118.178 291.592C116.63 291.592 115.478 292.771 115.478 294.85C115.478 296.929 116.63 298.108 118.178 298.108ZM118.178 296.875C117.458 296.875 116.954 296.281 116.954 294.85C116.954 293.419 117.458 292.825 118.178 292.825C118.907 292.825 119.411 293.419 119.411 294.85C119.411 296.281 118.907 296.875 118.178 296.875Z" fill="black" fill-opacity="0.3"/>
<path d="M172.478 294.265L173.9 292.645V291.7H169.49V292.87H172.172L170.876 294.337V295.3H171.542C172.37 295.3 172.721 295.597 172.721 296.074C172.721 296.587 172.271 296.884 171.542 296.884C170.885 296.884 170.219 296.677 169.742 296.317L169.175 297.433C169.787 297.865 170.696 298.108 171.578 298.108C173.369 298.108 174.188 297.136 174.188 296.074C174.188 295.147 173.612 294.445 172.478 294.265ZM174.573 291.7V292.87H175.833V298H177.291V291.7H174.573Z" fill="black" fill-opacity="0.3"/>
<defs>
<clipPath id="clip0_207_211">
<rect width="16.8063" height="13" fill="white" transform="translate(146.774 91)"/>
</clipPath>
<clipPath id="clip1_207_211">
<rect width="16.8063" height="13" fill="white" transform="translate(30.25 136)"/>
</clipPath>
<clipPath id="clip2_207_211">
<rect width="16.8063" height="13" fill="white" transform="translate(205.036 91)"/>
</clipPath>
</defs>
</svg>
