<svg width="13" height="15" viewBox="0 0 13 15" fill="none" xmlns="http://www.w3.org/2000/svg">
<path d="M13.0001 6.14971C11.7226 6.15279 10.4764 5.75055 9.43761 4.9998V10.2357C9.43726 11.2055 9.14367 12.152 8.59611 12.9488C8.04856 13.7455 7.27312 14.3545 6.3735 14.6943C5.47387 15.0341 4.49294 15.0885 3.56187 14.8502C2.63079 14.612 1.79395 14.0924 1.16325 13.361C0.532546 12.6296 0.138039 11.7212 0.0324808 10.7573C-0.0730778 9.79347 0.115343 8.82003 0.572549 7.96718C1.02976 7.11434 1.73395 6.42274 2.59098 5.98487C3.44801 5.54701 4.41702 5.38374 5.36844 5.51689V8.15039C4.93307 8.01213 4.46556 8.01629 4.03267 8.16229C3.59979 8.30829 3.22366 8.58865 2.95801 8.96334C2.69236 9.33803 2.55077 9.78789 2.55346 10.2487C2.55614 10.7094 2.70297 11.1576 2.97298 11.5291C3.24298 11.9006 3.62235 12.1765 4.05691 12.3173C4.49147 12.4581 4.959 12.4567 5.39273 12.3133C5.82645 12.1699 6.2042 11.8918 6.47202 11.5187C6.73985 11.1455 6.88405 10.6965 6.88404 10.2357V0H9.43761C9.43584 0.217717 9.45391 0.435137 9.49158 0.649512C9.58032 1.12807 9.76482 1.58332 10.0338 1.98742C10.3028 2.39152 10.6506 2.73597 11.0559 2.99971C11.6326 3.38469 12.3088 3.58989 13.0001 3.58975V6.14971Z" fill="white"/>
</svg>
