<svg width="16" height="16" viewBox="0 0 16 16" fill="none" xmlns="http://www.w3.org/2000/svg">
<g clip-path="url(#clip0_209_220)">
<path d="M15.6671 4.33773C15.5765 4.01455 15.4 3.72196 15.1564 3.49106C14.9059 3.25306 14.5989 3.08282 14.2644 2.99639C13.0124 2.66639 7.99641 2.66639 7.99641 2.66639C5.9053 2.6426 3.8147 2.74724 1.73641 2.97973C1.40187 3.07253 1.09545 3.24658 0.844411 3.48639C0.597745 3.72373 0.419078 4.01639 0.325745 4.33706C0.10154 5.54489 -0.00739386 6.77129 0.000411455 7.99973C-0.00758854 9.22706 0.101078 10.4531 0.325745 11.6624C0.417078 11.9817 0.595078 12.2731 0.842411 12.5084C1.08974 12.7437 1.39774 12.9137 1.73641 13.0037C3.00508 13.3331 7.99641 13.3331 7.99641 13.3331C10.0902 13.3569 12.1835 13.2522 14.2644 13.0197C14.5989 12.9333 14.9059 12.7631 15.1564 12.5251C15.3999 12.2942 15.5762 12.0016 15.6664 11.6784C15.8965 10.471 16.0083 9.24412 16.0004 8.01506C16.0177 6.78079 15.906 5.5481 15.6671 4.33706V4.33773ZM6.40174 10.2824V5.71773L10.5751 8.00039L6.40174 10.2824Z" fill="white"/>
</g>
<defs>
<clipPath id="clip0_209_220">
<rect width="16" height="16" fill="white"/>
</clipPath>
</defs>
</svg>
