<svg id="Calque_1" data-name="Calque 1" xmlns="http://www.w3.org/2000/svg" viewBox="0 0 1080 1080"><defs><style>.cls-1{font-size:28.57px;font-family:KozGoPr6N-Regular-83pv-RKSJ-H, Kozuka Gothic Pr6N;letter-spacing:-0.04em;}.cls-1,.cls-8{fill:#e2e2e2;}.cls-2{letter-spacing:-0.07em;}.cls-3{letter-spacing:-0.01em;}.cls-4{letter-spacing:-0.04em;}.cls-5{letter-spacing:-0.07em;}.cls-6{letter-spacing:-0.18em;}.cls-7{letter-spacing:-0.08em;}</style></defs><text class="cls-1"><tspan x="656.95" y="698.11">サ</tspan><tspan class="cls-2" x="684.38" y="698.11">イ</tspan><tspan class="cls-3" x="710.95" y="698.11">バ</tspan><tspan class="cls-4" x="739.23" y="698.11">ー</tspan><tspan class="cls-5" x="766.66" y="698.11">カ</tspan><tspan class="cls-6" x="793.23" y="698.11">フ</tspan><tspan class="cls-7" x="816.66" y="698.11">ェ</tspan></text><path class="cls-8" d="M272,600.63l13.6.08q14.94,0,20.44,4.95t5.49,19.81v2.69q0,17.46-4.36,23.37t-22.08,5.92l-12.84.25-5.37.09-11.58-.42q-9.74,0-15-4.41T235,638.73l-.17-10.32q0-17,4.36-22.28t20.74-5.25Zm-9.23,43.22,9.15.17,8.73-.08q7.21,0,10.36-1.56c2.1-1,3.15-3.6,3.15-7.7l.17-7.58a40,40,0,0,0-.47-6.6,6.78,6.78,0,0,0-1.88-4,7.94,7.94,0,0,0-4.24-1.73,40.75,40.75,0,0,0-6-.42l-17,.08a25.5,25.5,0,0,0-8.81,1.18c-2,.79-3.18,2.46-3.48,5a54.29,54.29,0,0,0-.46,6.35v3.79c0,5.17.6,8.64,1.8,10.44S258,643.85,262.78,643.85Z"/><path class="cls-8" d="M404,657.2H380.69L361.8,639.35,343,657.2H319.85l30.63-28.54-29-27.44h22.73L362.13,618l17.94-16.78H402l-28.69,27.26Z"/><path class="cls-8" d="M488.55,601.22l-31.47,36.51V657.2H440V637.73l-32-36.51h21.53l19,23.08,18.79-23.08Z"/><path class="cls-8" d="M569.46,625.64l.08,11.75q0,10.32-3.56,15.32t-13.89,5l-8.9.09L533,657.7l-8.81-.08a71.31,71.31,0,0,1-15.32-1.3,15.06,15.06,0,0,1-9-5.75q-3.32-4.46-3.31-13.6l-.17-7.05q0-16.36,4-22.66t19-6.3l12.75-.25,4.7-.08,11.42.25q11.09,0,16.07,3.82t5,14.73v1H552.67a9,9,0,0,0-.58-3.44,3.55,3.55,0,0,0-2.19-2,11.62,11.62,0,0,0-3.06-.71c-1-.09-2.39-.13-4.24-.13l-19.72-.08q-6,0-7.64,2.94c-1.06,2-1.59,5.26-1.59,9.9v5.2q0,5.79,1.59,8.61a5.92,5.92,0,0,0,4.53,3.19c2,.25,3.47.4,4.54.46s2.4.08,4,.08l15.2.08a13.55,13.55,0,0,0,6.75-1.42q2.47-1.43,2.48-5.37l-.09-1.6H531.1V625.64Z"/><path class="cls-8" d="M597.25,657.2H578.46l31.2-56h23l30.54,56H644.45L639.18,647H602.73Zm11.55-21.74h24.42L621.12,612Z"/><path class="cls-8" d="M752,657.2V614.56L727.33,657.2H713.65l-24.42-42.64V657.2h-16v-56h26l21.34,37.25,21.55-37.25h26v56Z"/><path class="cls-8" d="M845.17,601.22V614H799.76v9.57h42.39v11.08H799.76v9.9h45.41V657.2H782.73v-56Z"/><path class="cls-8" d="M427.67,381a85.55,85.55,0,0,0-48.48,77.06h0a85.54,85.54,0,0,0,48.48,77.06Z"/><path class="cls-8" d="M652.33,534.9a85.54,85.54,0,0,0,48.48-77.06h0a85.54,85.54,0,0,0-48.48-77.06Z"/><path class="cls-8" d="M566.7,372.21H513.3a85.63,85.63,0,0,0-85.63,85.63h0a85.63,85.63,0,0,0,85.63,85.63h53.4a85.63,85.63,0,0,0,85.63-85.63h0A85.63,85.63,0,0,0,566.7,372.21Zm41.63,85.63a31.59,31.59,0,0,1-31.59,31.6H503.26a31.59,31.59,0,0,1-31.59-31.6h0a31.59,31.59,0,0,1,31.59-31.6h73.48a31.59,31.59,0,0,1,31.59,31.6Z"/><circle class="cls-8" cx="573.7" cy="457.84" r="21.26"/></svg>