<svg id="Calque_1" data-name="Calque 1" xmlns="http://www.w3.org/2000/svg" viewBox="0 0 1080 1080">
    <defs>
        <style>.cls-1{fill:#e2e2e2;}</style>
    </defs>
    <path class="cls-1" d="M444.83,474.93a72.47,72.47,0,0,0-41.07,65.28h0a72.47,72.47,0,0,0,41.07,65.28Z"/>
    <path class="cls-1" d="M635.17,605.29A72.49,72.49,0,0,0,676.24,540h0a72.49,72.49,0,0,0-41.07-65.29Z"/>
    <path class="cls-1" d="M562.62,467.45H517.38A72.55,72.55,0,0,0,444.83,540h0a72.55,72.55,0,0,0,72.55,72.55h45.24A72.55,72.55,0,0,0,635.17,540h0A72.55,72.55,0,0,0,562.62,467.45ZM597.89,540a26.77,26.77,0,0,1-26.77,26.77H508.88A26.77,26.77,0,0,1,482.11,540h0a26.77,26.77,0,0,1,26.77-26.77h62.24A26.77,26.77,0,0,1,597.89,540Z"/>
    <circle class="cls-1" cx="568.55" cy="540" r="18.01"/>
</svg>